<svg xmlns="http://www.w3.org/2000/svg" xmlns:xlink="http://www.w3.org/1999/xlink" width="500" zoomAndPan="magnify" viewBox="0 0 375 299.999988" height="400" preserveAspectRatio="xMidYMid meet" version="1.0"><defs><filter x="0%" y="0%" width="100%" height="100%" id="7575c13836"><feColorMatrix values="0 0 0 0 1 0 0 0 0 1 0 0 0 0 1 0 0 0 1 0" color-interpolation-filters="sRGB"/></filter><g/><mask id="c9af3a3eb3"><g filter="url(#7575c13836)"><rect x="-37.5" width="450" fill="#000000" y="-29.999999" height="359.999986" fill-opacity="0.85"/></g></mask><clipPath id="8d3ecf56df"><rect x="0" width="42" y="0" height="19"/></clipPath><mask id="b8774c4d80"><g filter="url(#7575c13836)"><rect x="-37.5" width="450" fill="#000000" y="-29.999999" height="359.999986" fill-opacity="0.85"/></g></mask><clipPath id="8aab646210"><path d="M 0.121094 5 L 4 5 L 4 16 L 0.121094 16 Z M 0.121094 5 " clip-rule="nonzero"/></clipPath><clipPath id="3ba4a8dcc8"><rect x="0" width="43" y="0" height="19"/></clipPath><mask id="b601722e7b"><g filter="url(#7575c13836)"><rect x="-37.5" width="450" fill="#000000" y="-29.999999" height="359.999986" fill-opacity="0.85"/></g></mask><clipPath id="8f30165a7d"><path d="M 0 1 L 351 1 L 351 22.519531 L 0 22.519531 Z M 0 1 " clip-rule="nonzero"/></clipPath><clipPath id="9c0aedf1e1"><rect x="0" width="352" y="0" height="23"/></clipPath><mask id="dd60a06fa1"><g filter="url(#7575c13836)"><rect x="-37.5" width="450" fill="#000000" y="-29.999999" height="359.999986" fill-opacity="0.85"/></g></mask><clipPath id="a851fea850"><path d="M 110 100 L 276.234375 100 L 276.234375 226 L 110 226 Z M 110 100 " clip-rule="nonzero"/></clipPath><clipPath id="ef63198936"><path d="M 9.234375 99 L 171 99 L 171 228.710938 L 9.234375 228.710938 Z M 9.234375 99 " clip-rule="nonzero"/></clipPath><clipPath id="414015d1af"><path d="M 48 10.460938 L 237 10.460938 L 237 165 L 48 165 Z M 48 10.460938 " clip-rule="nonzero"/></clipPath><clipPath id="48b5f11508"><path d="M 93 127 L 197 127 L 197 228.710938 L 93 228.710938 Z M 93 127 " clip-rule="nonzero"/></clipPath><clipPath id="1a55a33699"><path d="M 9.234375 44 L 276.234375 44 L 276.234375 185 L 9.234375 185 Z M 9.234375 44 " clip-rule="nonzero"/></clipPath><clipPath id="93fa1c795d"><rect x="0" width="286" y="0" height="238"/></clipPath></defs><g mask="url(#c9af3a3eb3)"><g transform="matrix(1, 0, 0, 1, 16, 123)"><g clip-path="url(#8d3ecf56df)"><g fill="#f9f9f8" fill-opacity="1"><g transform="translate(0.792199, 15.30683)"><g><path d="M 8.28125 -8.3125 L 2.9375 -8.3125 L 2.9375 -5.671875 L 7.734375 -5.671875 L 7.734375 -4.1875 L 2.9375 -4.1875 L 2.9375 -1.484375 L 8.453125 -1.484375 L 8.453125 0 L 1.28125 0 L 1.28125 -9.796875 L 8.28125 -9.796875 Z M 8.28125 -8.3125 "/></g></g></g><g fill="#f9f9f8" fill-opacity="1"><g transform="translate(12.771085, 15.30683)"><g><path d="M 4.515625 -9.875 C 5.773438 -9.875 6.914062 -9.535156 7.9375 -8.859375 L 7.25 -7.40625 C 6.25 -8.007812 5.289062 -8.3125 4.375 -8.3125 C 3.882812 -8.3125 3.492188 -8.222656 3.203125 -8.046875 C 2.921875 -7.867188 2.78125 -7.613281 2.78125 -7.28125 C 2.78125 -6.957031 2.910156 -6.679688 3.171875 -6.453125 C 3.429688 -6.234375 3.757812 -6.066406 4.15625 -5.953125 C 4.550781 -5.847656 4.976562 -5.710938 5.4375 -5.546875 C 5.894531 -5.390625 6.316406 -5.21875 6.703125 -5.03125 C 7.097656 -4.851562 7.421875 -4.566406 7.671875 -4.171875 C 7.929688 -3.785156 8.0625 -3.316406 8.0625 -2.765625 C 8.0625 -1.910156 7.71875 -1.222656 7.03125 -0.703125 C 6.34375 -0.191406 5.457031 0.0625 4.375 0.0625 C 3.625 0.0625 2.894531 -0.078125 2.1875 -0.359375 C 1.488281 -0.640625 0.878906 -1.019531 0.359375 -1.5 L 1.078125 -2.921875 C 1.566406 -2.460938 2.109375 -2.109375 2.703125 -1.859375 C 3.296875 -1.617188 3.859375 -1.5 4.390625 -1.5 C 4.972656 -1.5 5.425781 -1.601562 5.75 -1.8125 C 6.070312 -2.019531 6.234375 -2.3125 6.234375 -2.6875 C 6.234375 -3.019531 6.101562 -3.300781 5.84375 -3.53125 C 5.582031 -3.757812 5.253906 -3.925781 4.859375 -4.03125 C 4.460938 -4.144531 4.035156 -4.273438 3.578125 -4.421875 C 3.117188 -4.578125 2.691406 -4.742188 2.296875 -4.921875 C 1.910156 -5.097656 1.585938 -5.375 1.328125 -5.75 C 1.066406 -6.132812 0.9375 -6.597656 0.9375 -7.140625 C 0.9375 -7.972656 1.257812 -8.632812 1.90625 -9.125 C 2.5625 -9.625 3.429688 -9.875 4.515625 -9.875 Z M 4.515625 -9.875 "/></g></g></g><g fill="#f9f9f8" fill-opacity="1"><g transform="translate(24.27423, 15.30683)"><g><path d="M 7.984375 -8.3125 L 4.875 -8.3125 L 4.875 0 L 3.21875 0 L 3.21875 -8.3125 L 0.125 -8.3125 L 0.125 -9.796875 L 7.984375 -9.796875 Z M 7.984375 -8.3125 "/></g></g></g><g fill="#f9f9f8" fill-opacity="1"><g transform="translate(35.175712, 15.30683)"><g><path d="M 0.890625 -1.453125 C 1.054688 -1.628906 1.265625 -1.71875 1.515625 -1.71875 C 1.773438 -1.71875 1.988281 -1.628906 2.15625 -1.453125 C 2.320312 -1.285156 2.40625 -1.070312 2.40625 -0.8125 C 2.40625 -0.539062 2.320312 -0.316406 2.15625 -0.140625 C 1.988281 0.0351562 1.773438 0.125 1.515625 0.125 C 1.265625 0.125 1.054688 0.0351562 0.890625 -0.140625 C 0.722656 -0.316406 0.640625 -0.539062 0.640625 -0.8125 C 0.640625 -1.070312 0.722656 -1.285156 0.890625 -1.453125 Z M 0.890625 -1.453125 "/></g></g></g></g></g></g><g mask="url(#b8774c4d80)"><g transform="matrix(1, 0, 0, 1, 321, 123)"><g clip-path="url(#3ba4a8dcc8)"><g clip-path="url(#8aab646210)"><g fill="#f9f9f8" fill-opacity="1"><g transform="translate(0.135362, 15.30683)"><g><path d="M 3.75 0 L 2.09375 0 L 2.09375 -8.328125 L 0.1875 -8.328125 L 0.1875 -9.796875 L 3.75 -9.796875 Z M 3.75 0 "/></g></g></g></g><g fill="#f9f9f8" fill-opacity="1"><g transform="translate(8.350345, 15.30683)"><g><path d="M 3.796875 0.0625 C 2.722656 0.0625 1.75 -0.179688 0.875 -0.671875 L 1.515625 -1.921875 C 2.148438 -1.503906 2.875 -1.296875 3.6875 -1.296875 C 4.601562 -1.296875 5.289062 -1.613281 5.75 -2.25 C 6.21875 -2.882812 6.4375 -3.75 6.40625 -4.84375 C 5.882812 -3.914062 4.992188 -3.453125 3.734375 -3.453125 C 2.753906 -3.453125 1.984375 -3.734375 1.421875 -4.296875 C 0.867188 -4.867188 0.59375 -5.628906 0.59375 -6.578125 C 0.59375 -7.585938 0.90625 -8.390625 1.53125 -8.984375 C 2.15625 -9.578125 2.988281 -9.875 4.03125 -9.875 C 5.269531 -9.875 6.242188 -9.453125 6.953125 -8.609375 C 7.660156 -7.765625 8.015625 -6.59375 8.015625 -5.09375 C 8.015625 -3.53125 7.628906 -2.28125 6.859375 -1.34375 C 6.097656 -0.40625 5.078125 0.0625 3.796875 0.0625 Z M 4.046875 -4.765625 C 4.691406 -4.765625 5.203125 -4.941406 5.578125 -5.296875 C 5.960938 -5.660156 6.148438 -6.101562 6.140625 -6.625 C 6.148438 -7.101562 5.976562 -7.523438 5.625 -7.890625 C 5.28125 -8.253906 4.773438 -8.4375 4.109375 -8.4375 C 3.503906 -8.4375 3.019531 -8.269531 2.65625 -7.9375 C 2.300781 -7.613281 2.125 -7.15625 2.125 -6.5625 C 2.125 -6 2.296875 -5.554688 2.640625 -5.234375 C 2.984375 -4.921875 3.453125 -4.765625 4.046875 -4.765625 Z M 4.046875 -4.765625 "/></g></g></g><g fill="#f9f9f8" fill-opacity="1"><g transform="translate(19.755551, 15.30683)"><g><path d="M 7.640625 -8.546875 L 3.734375 0 L 1.984375 0 L 5.796875 -8.3125 L 1.984375 -8.3125 L 1.96875 -6.9375 L 0.515625 -6.9375 L 0.515625 -9.796875 L 7.640625 -9.796875 Z M 7.640625 -8.546875 "/></g></g></g><g fill="#f9f9f8" fill-opacity="1"><g transform="translate(30.531102, 15.30683)"><g><path d="M 1.984375 -9.203125 C 2.578125 -9.648438 3.375 -9.875 4.375 -9.875 C 5.382812 -9.875 6.1875 -9.644531 6.78125 -9.1875 C 7.375 -8.738281 7.671875 -8.125 7.671875 -7.34375 C 7.671875 -6.875 7.539062 -6.457031 7.28125 -6.09375 C 7.03125 -5.726562 6.675781 -5.441406 6.21875 -5.234375 C 6.820312 -5.035156 7.296875 -4.71875 7.640625 -4.28125 C 7.984375 -3.84375 8.15625 -3.332031 8.15625 -2.75 C 8.15625 -1.875 7.816406 -1.1875 7.140625 -0.6875 C 6.460938 -0.1875 5.539062 0.0625 4.375 0.0625 C 3.21875 0.0625 2.300781 -0.179688 1.625 -0.671875 C 0.945312 -1.171875 0.609375 -1.851562 0.609375 -2.71875 C 0.609375 -3.3125 0.785156 -3.828125 1.140625 -4.265625 C 1.503906 -4.710938 2 -5.035156 2.625 -5.234375 C 1.613281 -5.703125 1.109375 -6.421875 1.109375 -7.390625 C 1.109375 -8.160156 1.398438 -8.765625 1.984375 -9.203125 Z M 4.375 -8.6875 C 3.789062 -8.6875 3.332031 -8.554688 3 -8.296875 C 2.664062 -8.046875 2.5 -7.691406 2.5 -7.234375 C 2.5 -6.773438 2.664062 -6.421875 3 -6.171875 C 3.332031 -5.929688 3.789062 -5.8125 4.375 -5.8125 C 4.976562 -5.8125 5.441406 -5.929688 5.765625 -6.171875 C 6.097656 -6.421875 6.265625 -6.773438 6.265625 -7.234375 C 6.265625 -7.691406 6.097656 -8.046875 5.765625 -8.296875 C 5.441406 -8.554688 4.976562 -8.6875 4.375 -8.6875 Z M 4.375 -4.515625 C 3.6875 -4.515625 3.148438 -4.375 2.765625 -4.09375 C 2.378906 -3.8125 2.1875 -3.410156 2.1875 -2.890625 C 2.1875 -2.359375 2.375 -1.945312 2.75 -1.65625 C 3.132812 -1.375 3.675781 -1.234375 4.375 -1.234375 C 5.082031 -1.234375 5.628906 -1.375 6.015625 -1.65625 C 6.398438 -1.945312 6.59375 -2.359375 6.59375 -2.890625 C 6.59375 -3.410156 6.398438 -3.8125 6.015625 -4.09375 C 5.628906 -4.375 5.082031 -4.515625 4.375 -4.515625 Z M 4.375 -4.515625 "/></g></g></g></g></g></g><g fill="#f9f9f8" fill-opacity="1"><g transform="translate(12.942525, 265.417759)"><g><path d="M 7.328125 -18.109375 L 0.140625 -18.109375 L 0.140625 -24.515625 L 22.765625 -24.515625 L 22.765625 -18.109375 L 15.59375 -18.109375 L 15.59375 0 L 7.328125 0 Z M 7.328125 -18.109375 "/></g></g></g><g fill="#f9f9f8" fill-opacity="1"><g transform="translate(37.60826, 265.417759)"><g><path d="M 26.171875 -24.515625 L 26.171875 0 L 17.90625 0 L 17.90625 -9.03125 L 10.265625 -9.03125 L 10.265625 0 L 2 0 L 2 -24.515625 L 10.265625 -24.515625 L 10.265625 -15.828125 L 17.90625 -15.828125 L 17.90625 -24.515625 Z M 26.171875 -24.515625 "/></g></g></g><g fill="#f9f9f8" fill-opacity="1"><g transform="translate(67.529479, 265.417759)"><g><path d="M 22.390625 -6.234375 L 22.390625 0 L 2 0 L 2 -24.515625 L 21.921875 -24.515625 L 21.921875 -18.28125 L 10.125 -18.28125 L 10.125 -15.40625 L 20.5 -15.40625 L 20.5 -9.453125 L 10.125 -9.453125 L 10.125 -6.234375 Z M 22.390625 -6.234375 "/></g></g></g><g fill="#f9f9f8" fill-opacity="1"><g transform="translate(92.860909, 265.417759)"><g/></g></g><g fill="#f9f9f8" fill-opacity="1"><g transform="translate(105.123701, 265.417759)"><g><path d="M 13.796875 -24.515625 C 16.066406 -24.515625 18.039062 -24.140625 19.71875 -23.390625 C 21.40625 -22.648438 22.703125 -21.578125 23.609375 -20.171875 C 24.523438 -18.773438 24.984375 -17.144531 24.984375 -15.28125 C 24.984375 -13.40625 24.523438 -11.765625 23.609375 -10.359375 C 22.703125 -8.960938 21.40625 -7.890625 19.71875 -7.140625 C 18.039062 -6.398438 16.066406 -6.03125 13.796875 -6.03125 L 10.265625 -6.03125 L 10.265625 0 L 2 0 L 2 -24.515625 Z M 13.28125 -12.40625 C 14.394531 -12.40625 15.234375 -12.65625 15.796875 -13.15625 C 16.359375 -13.65625 16.640625 -14.363281 16.640625 -15.28125 C 16.640625 -16.1875 16.359375 -16.890625 15.796875 -17.390625 C 15.234375 -17.890625 14.394531 -18.140625 13.28125 -18.140625 L 10.265625 -18.140625 L 10.265625 -12.40625 Z M 13.28125 -12.40625 "/></g></g></g><g fill="#f9f9f8" fill-opacity="1"><g transform="translate(132.907692, 265.417759)"><g><path d="M 2 -24.515625 L 10.265625 -24.515625 L 10.265625 -6.40625 L 21.328125 -6.40625 L 21.328125 0 L 2 0 Z M 2 -24.515625 "/></g></g></g><g fill="#f9f9f8" fill-opacity="1"><g transform="translate(156.277071, 265.417759)"><g><path d="M 18.703125 -4.28125 L 9.390625 -4.28125 L 7.734375 0 L -0.671875 0 L 10.046875 -24.515625 L 18.1875 -24.515625 L 28.90625 0 L 20.359375 0 Z M 16.4375 -10.234375 L 14.046875 -16.390625 L 11.671875 -10.234375 Z M 16.4375 -10.234375 "/></g></g></g><g fill="#f9f9f8" fill-opacity="1"><g transform="translate(186.268363, 265.417759)"><g><path d="M 26.171875 -24.515625 L 26.171875 0 L 19.375 0 L 10.046875 -11.140625 L 10.046875 0 L 2 0 L 2 -24.515625 L 8.796875 -24.515625 L 18.109375 -13.375 L 18.109375 -24.515625 Z M 26.171875 -24.515625 "/></g></g></g><g fill="#f9f9f8" fill-opacity="1"><g transform="translate(216.189576, 265.417759)"><g><path d="M 7.328125 -18.109375 L 0.140625 -18.109375 L 0.140625 -24.515625 L 22.765625 -24.515625 L 22.765625 -18.109375 L 15.59375 -18.109375 L 15.59375 0 L 7.328125 0 Z M 7.328125 -18.109375 "/></g></g></g><g fill="#f9f9f8" fill-opacity="1"><g transform="translate(240.855306, 265.417759)"><g/></g></g><g fill="#f9f9f8" fill-opacity="1"><g transform="translate(253.118092, 265.417759)"><g><path d="M 2 -24.515625 L 10.265625 -24.515625 L 10.265625 -6.40625 L 21.328125 -6.40625 L 21.328125 0 L 2 0 Z M 2 -24.515625 "/></g></g></g><g fill="#f9f9f8" fill-opacity="1"><g transform="translate(276.487471, 265.417759)"><g><path d="M 18.703125 -4.28125 L 9.390625 -4.28125 L 7.734375 0 L -0.671875 0 L 10.046875 -24.515625 L 18.1875 -24.515625 L 28.90625 0 L 20.359375 0 Z M 16.4375 -10.234375 L 14.046875 -16.390625 L 11.671875 -10.234375 Z M 16.4375 -10.234375 "/></g></g></g><g fill="#f9f9f8" fill-opacity="1"><g transform="translate(306.478763, 265.417759)"><g><path d="M 2 -24.515625 L 14.078125 -24.515625 C 16.816406 -24.515625 19.226562 -24.019531 21.3125 -23.03125 C 23.40625 -22.039062 25.03125 -20.625 26.1875 -18.78125 C 27.34375 -16.9375 27.921875 -14.765625 27.921875 -12.265625 C 27.921875 -9.765625 27.34375 -7.59375 26.1875 -5.75 C 25.03125 -3.90625 23.40625 -2.484375 21.3125 -1.484375 C 19.226562 -0.492188 16.816406 0 14.078125 0 L 2 0 Z M 13.734375 -6.453125 C 15.503906 -6.453125 16.921875 -6.957031 17.984375 -7.96875 C 19.046875 -8.988281 19.578125 -10.421875 19.578125 -12.265625 C 19.578125 -14.109375 19.046875 -15.535156 17.984375 -16.546875 C 16.921875 -17.566406 15.503906 -18.078125 13.734375 -18.078125 L 10.265625 -18.078125 L 10.265625 -6.453125 Z M 13.734375 -6.453125 "/></g></g></g><g fill="#f9f9f8" fill-opacity="1"><g transform="translate(337.170801, 265.417759)"><g><path d="M 16.5625 -8.890625 L 16.5625 0 L 8.296875 0 L 8.296875 -9 L -0.953125 -24.515625 L 7.78125 -24.515625 L 12.78125 -16.046875 L 17.828125 -24.515625 L 25.8125 -24.515625 Z M 16.5625 -8.890625 "/></g></g></g><g mask="url(#b601722e7b)"><g transform="matrix(1, 0, 0, 1, 12, 271)"><g clip-path="url(#9c0aedf1e1)"><g clip-path="url(#8f30165a7d)"><path fill="#f9f9f8" d="M 0.171875 1.261719 L 350.828125 1.261719 L 350.828125 22.207031 L 0.171875 22.207031 L 0.171875 1.261719 " fill-opacity="0.85" fill-rule="nonzero"/></g><g fill="#113f3d" fill-opacity="1"><g transform="translate(4.917196, 17.360826)"><g/></g></g><g fill="#113f3d" fill-opacity="1"><g transform="translate(10.62718, 17.360826)"><g/></g></g><g fill="#113f3d" fill-opacity="1"><g transform="translate(16.342976, 17.360826)"><g><path d="M 1.28125 -9.796875 L 5.3125 -9.796875 C 6.769531 -9.796875 7.976562 -9.332031 8.9375 -8.40625 C 9.894531 -7.488281 10.375 -6.316406 10.375 -4.890625 C 10.375 -3.472656 9.890625 -2.300781 8.921875 -1.375 C 7.960938 -0.457031 6.742188 0 5.265625 0 L 1.28125 0 Z M 2.9375 -8.3125 L 2.9375 -1.484375 L 5.34375 -1.484375 C 6.3125 -1.484375 7.113281 -1.800781 7.75 -2.4375 C 8.382812 -3.082031 8.703125 -3.898438 8.703125 -4.890625 C 8.703125 -5.878906 8.375 -6.695312 7.71875 -7.34375 C 7.0625 -7.988281 6.25 -8.3125 5.28125 -8.3125 Z M 2.9375 -8.3125 "/></g></g></g><g fill="#113f3d" fill-opacity="1"><g transform="translate(29.286931, 17.360826)"><g><path d="M 8.28125 -8.3125 L 2.9375 -8.3125 L 2.9375 -5.671875 L 7.734375 -5.671875 L 7.734375 -4.1875 L 2.9375 -4.1875 L 2.9375 -1.484375 L 8.453125 -1.484375 L 8.453125 0 L 1.28125 0 L 1.28125 -9.796875 L 8.28125 -9.796875 Z M 8.28125 -8.3125 "/></g></g></g><g fill="#113f3d" fill-opacity="1"><g transform="translate(40.565816, 17.360826)"><g><path d="M 4.515625 -9.875 C 5.773438 -9.875 6.914062 -9.535156 7.9375 -8.859375 L 7.25 -7.40625 C 6.25 -8.007812 5.289062 -8.3125 4.375 -8.3125 C 3.882812 -8.3125 3.492188 -8.222656 3.203125 -8.046875 C 2.921875 -7.867188 2.78125 -7.613281 2.78125 -7.28125 C 2.78125 -6.957031 2.910156 -6.679688 3.171875 -6.453125 C 3.429688 -6.234375 3.757812 -6.066406 4.15625 -5.953125 C 4.550781 -5.847656 4.976562 -5.710938 5.4375 -5.546875 C 5.894531 -5.390625 6.316406 -5.21875 6.703125 -5.03125 C 7.097656 -4.851562 7.421875 -4.566406 7.671875 -4.171875 C 7.929688 -3.785156 8.0625 -3.316406 8.0625 -2.765625 C 8.0625 -1.910156 7.71875 -1.222656 7.03125 -0.703125 C 6.34375 -0.191406 5.457031 0.0625 4.375 0.0625 C 3.625 0.0625 2.894531 -0.078125 2.1875 -0.359375 C 1.488281 -0.640625 0.878906 -1.019531 0.359375 -1.5 L 1.078125 -2.921875 C 1.566406 -2.460938 2.109375 -2.109375 2.703125 -1.859375 C 3.296875 -1.617188 3.859375 -1.5 4.390625 -1.5 C 4.972656 -1.5 5.425781 -1.601562 5.75 -1.8125 C 6.070312 -2.019531 6.234375 -2.3125 6.234375 -2.6875 C 6.234375 -3.019531 6.101562 -3.300781 5.84375 -3.53125 C 5.582031 -3.757812 5.253906 -3.925781 4.859375 -4.03125 C 4.460938 -4.144531 4.035156 -4.273438 3.578125 -4.421875 C 3.117188 -4.578125 2.691406 -4.742188 2.296875 -4.921875 C 1.910156 -5.097656 1.585938 -5.375 1.328125 -5.75 C 1.066406 -6.132812 0.9375 -6.597656 0.9375 -7.140625 C 0.9375 -7.972656 1.257812 -8.632812 1.90625 -9.125 C 2.5625 -9.625 3.429688 -9.875 4.515625 -9.875 Z M 4.515625 -9.875 "/></g></g></g><g fill="#113f3d" fill-opacity="1"><g transform="translate(51.368961, 17.360826)"><g><path d="M 2.9375 0 L 1.28125 0 L 1.28125 -9.796875 L 2.9375 -9.796875 Z M 2.9375 0 "/></g></g></g><g fill="#113f3d" fill-opacity="1"><g transform="translate(57.694602, 17.360826)"><g><path d="M 8 -4.8125 L 9.4375 -4.8125 L 9.4375 -1.203125 C 8.9375 -0.816406 8.34375 -0.507812 7.65625 -0.28125 C 6.96875 -0.0507812 6.289062 0.0625 5.625 0.0625 C 4.175781 0.0625 2.953125 -0.410156 1.953125 -1.359375 C 0.960938 -2.316406 0.46875 -3.492188 0.46875 -4.890625 C 0.46875 -6.296875 0.972656 -7.472656 1.984375 -8.421875 C 2.992188 -9.367188 4.238281 -9.84375 5.71875 -9.84375 C 6.414062 -9.84375 7.097656 -9.71875 7.765625 -9.46875 C 8.429688 -9.21875 9.003906 -8.882812 9.484375 -8.46875 L 8.546875 -7.25 C 7.742188 -8 6.800781 -8.375 5.71875 -8.375 C 4.726562 -8.375 3.882812 -8.035156 3.1875 -7.359375 C 2.5 -6.691406 2.15625 -5.875 2.15625 -4.90625 C 2.15625 -3.925781 2.5 -3.097656 3.1875 -2.421875 C 3.882812 -1.742188 4.734375 -1.40625 5.734375 -1.40625 C 6.492188 -1.40625 7.25 -1.632812 8 -2.09375 Z M 8 -4.8125 "/></g></g></g><g fill="#113f3d" fill-opacity="1"><g transform="translate(70.274759, 17.360826)"><g><path d="M 9.78125 0 L 8.15625 0 L 2.9375 -7.03125 L 2.9375 0 L 1.28125 0 L 1.28125 -9.796875 L 2.90625 -9.796875 L 8.15625 -2.765625 L 8.15625 -9.796875 L 9.78125 -9.796875 Z M 9.78125 0 "/></g></g></g><g fill="#113f3d" fill-opacity="1"><g transform="translate(83.456578, 17.360826)"><g><path d="M 1.53125 -1.6875 C 1.757812 -1.6875 1.957031 -1.601562 2.125 -1.4375 C 2.289062 -1.28125 2.375 -1.066406 2.375 -0.796875 C 2.375 -0.546875 2.289062 -0.300781 2.125 -0.0625 L 1.328125 1.140625 L 0.5 1.140625 L 1.03125 -0.0625 C 0.78125 -0.238281 0.65625 -0.484375 0.65625 -0.796875 C 0.65625 -1.054688 0.734375 -1.269531 0.890625 -1.4375 C 1.054688 -1.601562 1.269531 -1.6875 1.53125 -1.6875 Z M 1.53125 -1.6875 "/></g></g></g><g fill="#113f3d" fill-opacity="1"><g transform="translate(88.553907, 17.360826)"><g/></g></g><g fill="#113f3d" fill-opacity="1"><g transform="translate(94.263892, 17.360826)"><g/></g></g><g fill="#113f3d" fill-opacity="1"><g transform="translate(99.979688, 17.360826)"><g><path d="M 2.9375 0 L 1.28125 0 L 1.28125 -9.796875 L 2.9375 -9.796875 Z M 2.9375 0 "/></g></g></g><g fill="#113f3d" fill-opacity="1"><g transform="translate(106.30533, 17.360826)"><g><path d="M 9.78125 0 L 8.15625 0 L 2.9375 -7.03125 L 2.9375 0 L 1.28125 0 L 1.28125 -9.796875 L 2.90625 -9.796875 L 8.15625 -2.765625 L 8.15625 -9.796875 L 9.78125 -9.796875 Z M 9.78125 0 "/></g></g></g><g fill="#113f3d" fill-opacity="1"><g transform="translate(119.487151, 17.360826)"><g><path d="M 4.515625 -9.875 C 5.773438 -9.875 6.914062 -9.535156 7.9375 -8.859375 L 7.25 -7.40625 C 6.25 -8.007812 5.289062 -8.3125 4.375 -8.3125 C 3.882812 -8.3125 3.492188 -8.222656 3.203125 -8.046875 C 2.921875 -7.867188 2.78125 -7.613281 2.78125 -7.28125 C 2.78125 -6.957031 2.910156 -6.679688 3.171875 -6.453125 C 3.429688 -6.234375 3.757812 -6.066406 4.15625 -5.953125 C 4.550781 -5.847656 4.976562 -5.710938 5.4375 -5.546875 C 5.894531 -5.390625 6.316406 -5.21875 6.703125 -5.03125 C 7.097656 -4.851562 7.421875 -4.566406 7.671875 -4.171875 C 7.929688 -3.785156 8.0625 -3.316406 8.0625 -2.765625 C 8.0625 -1.910156 7.71875 -1.222656 7.03125 -0.703125 C 6.34375 -0.191406 5.457031 0.0625 4.375 0.0625 C 3.625 0.0625 2.894531 -0.078125 2.1875 -0.359375 C 1.488281 -0.640625 0.878906 -1.019531 0.359375 -1.5 L 1.078125 -2.921875 C 1.566406 -2.460938 2.109375 -2.109375 2.703125 -1.859375 C 3.296875 -1.617188 3.859375 -1.5 4.390625 -1.5 C 4.972656 -1.5 5.425781 -1.601562 5.75 -1.8125 C 6.070312 -2.019531 6.234375 -2.3125 6.234375 -2.6875 C 6.234375 -3.019531 6.101562 -3.300781 5.84375 -3.53125 C 5.582031 -3.757812 5.253906 -3.925781 4.859375 -4.03125 C 4.460938 -4.144531 4.035156 -4.273438 3.578125 -4.421875 C 3.117188 -4.578125 2.691406 -4.742188 2.296875 -4.921875 C 1.910156 -5.097656 1.585938 -5.375 1.328125 -5.75 C 1.066406 -6.132812 0.9375 -6.597656 0.9375 -7.140625 C 0.9375 -7.972656 1.257812 -8.632812 1.90625 -9.125 C 2.5625 -9.625 3.429688 -9.875 4.515625 -9.875 Z M 4.515625 -9.875 "/></g></g></g><g fill="#113f3d" fill-opacity="1"><g transform="translate(130.290295, 17.360826)"><g><path d="M 7.984375 -8.3125 L 4.875 -8.3125 L 4.875 0 L 3.21875 0 L 3.21875 -8.3125 L 0.125 -8.3125 L 0.125 -9.796875 L 7.984375 -9.796875 Z M 7.984375 -8.3125 "/></g></g></g><g fill="#113f3d" fill-opacity="1"><g transform="translate(140.491775, 17.360826)"><g><path d="M 7.609375 -2.21875 L 2.671875 -2.21875 L 1.734375 0 L 0.015625 0 L 4.34375 -9.796875 L 6.03125 -9.796875 L 10.3125 0 L 8.546875 0 Z M 6.984375 -3.6875 L 5.140625 -8.03125 L 3.296875 -3.6875 Z M 6.984375 -3.6875 "/></g></g></g><g fill="#113f3d" fill-opacity="1"><g transform="translate(152.91801, 17.360826)"><g><path d="M 2.9375 -1.5 L 7.1875 -1.5 L 7.1875 0 L 1.28125 0 L 1.28125 -9.796875 L 2.9375 -9.796875 Z M 2.9375 -1.5 "/></g></g></g><g fill="#113f3d" fill-opacity="1"><g transform="translate(162.489836, 17.360826)"><g><path d="M 2.9375 -1.5 L 7.1875 -1.5 L 7.1875 0 L 1.28125 0 L 1.28125 -9.796875 L 2.9375 -9.796875 Z M 2.9375 -1.5 "/></g></g></g><g fill="#113f3d" fill-opacity="1"><g transform="translate(172.061662, 17.360826)"><g><path d="M 7.609375 -2.21875 L 2.671875 -2.21875 L 1.734375 0 L 0.015625 0 L 4.34375 -9.796875 L 6.03125 -9.796875 L 10.3125 0 L 8.546875 0 Z M 6.984375 -3.6875 L 5.140625 -8.03125 L 3.296875 -3.6875 Z M 6.984375 -3.6875 "/></g></g></g><g fill="#113f3d" fill-opacity="1"><g transform="translate(184.487896, 17.360826)"><g><path d="M 7.984375 -8.3125 L 4.875 -8.3125 L 4.875 0 L 3.21875 0 L 3.21875 -8.3125 L 0.125 -8.3125 L 0.125 -9.796875 L 7.984375 -9.796875 Z M 7.984375 -8.3125 "/></g></g></g><g fill="#113f3d" fill-opacity="1"><g transform="translate(194.689376, 17.360826)"><g><path d="M 2.9375 0 L 1.28125 0 L 1.28125 -9.796875 L 2.9375 -9.796875 Z M 2.9375 0 "/></g></g></g><g fill="#113f3d" fill-opacity="1"><g transform="translate(201.015023, 17.360826)"><g><path d="M 1.96875 -8.421875 C 2.96875 -9.367188 4.203125 -9.84375 5.671875 -9.84375 C 7.140625 -9.84375 8.367188 -9.367188 9.359375 -8.421875 C 10.359375 -7.472656 10.859375 -6.296875 10.859375 -4.890625 C 10.859375 -3.492188 10.359375 -2.316406 9.359375 -1.359375 C 8.367188 -0.410156 7.140625 0.0625 5.671875 0.0625 C 4.203125 0.0625 2.96875 -0.410156 1.96875 -1.359375 C 0.96875 -2.316406 0.46875 -3.492188 0.46875 -4.890625 C 0.46875 -6.296875 0.96875 -7.472656 1.96875 -8.421875 Z M 5.6875 -8.359375 C 4.71875 -8.359375 3.882812 -8.023438 3.1875 -7.359375 C 2.5 -6.691406 2.15625 -5.867188 2.15625 -4.890625 C 2.15625 -3.921875 2.5 -3.097656 3.1875 -2.421875 C 3.882812 -1.742188 4.710938 -1.40625 5.671875 -1.40625 C 6.640625 -1.40625 7.460938 -1.742188 8.140625 -2.421875 C 8.828125 -3.097656 9.171875 -3.921875 9.171875 -4.890625 C 9.171875 -5.867188 8.828125 -6.691406 8.140625 -7.359375 C 7.460938 -8.023438 6.644531 -8.359375 5.6875 -8.359375 Z M 5.6875 -8.359375 "/></g></g></g><g fill="#113f3d" fill-opacity="1"><g transform="translate(214.448703, 17.360826)"><g><path d="M 9.78125 0 L 8.15625 0 L 2.9375 -7.03125 L 2.9375 0 L 1.28125 0 L 1.28125 -9.796875 L 2.90625 -9.796875 L 8.15625 -2.765625 L 8.15625 -9.796875 L 9.78125 -9.796875 Z M 9.78125 0 "/></g></g></g><g fill="#113f3d" fill-opacity="1"><g transform="translate(227.630522, 17.360826)"><g><path d="M 1.53125 -1.6875 C 1.757812 -1.6875 1.957031 -1.601562 2.125 -1.4375 C 2.289062 -1.28125 2.375 -1.066406 2.375 -0.796875 C 2.375 -0.546875 2.289062 -0.300781 2.125 -0.0625 L 1.328125 1.140625 L 0.5 1.140625 L 1.03125 -0.0625 C 0.78125 -0.238281 0.65625 -0.484375 0.65625 -0.796875 C 0.65625 -1.054688 0.734375 -1.269531 0.890625 -1.4375 C 1.054688 -1.601562 1.269531 -1.6875 1.53125 -1.6875 Z M 1.53125 -1.6875 "/></g></g></g><g fill="#113f3d" fill-opacity="1"><g transform="translate(232.724848, 17.360826)"><g/></g></g><g fill="#113f3d" fill-opacity="1"><g transform="translate(238.434831, 17.360826)"><g><path d="M 8.359375 0.265625 L 6.828125 -1.234375 C 5.910156 -0.367188 4.925781 0.0625 3.875 0.0625 C 3 0.0625 2.265625 -0.195312 1.671875 -0.71875 C 1.085938 -1.238281 0.796875 -1.890625 0.796875 -2.671875 C 0.796875 -3.304688 0.984375 -3.828125 1.359375 -4.234375 C 1.734375 -4.648438 2.25 -5.035156 2.90625 -5.390625 C 2.28125 -6.234375 1.96875 -6.988281 1.96875 -7.65625 C 1.96875 -8.3125 2.203125 -8.84375 2.671875 -9.25 C 3.148438 -9.664062 3.765625 -9.875 4.515625 -9.875 C 5.242188 -9.875 5.835938 -9.679688 6.296875 -9.296875 C 6.765625 -8.910156 7 -8.414062 7 -7.8125 C 7 -7.5 6.9375 -7.207031 6.8125 -6.9375 C 6.6875 -6.664062 6.492188 -6.414062 6.234375 -6.1875 C 5.984375 -5.96875 5.742188 -5.785156 5.515625 -5.640625 C 5.285156 -5.503906 4.988281 -5.335938 4.625 -5.140625 C 5.082031 -4.609375 5.765625 -3.898438 6.671875 -3.015625 C 7.015625 -3.515625 7.3125 -4.101562 7.5625 -4.78125 L 8.609375 -3.984375 C 8.296875 -3.253906 7.957031 -2.632812 7.59375 -2.125 L 9.1875 -0.578125 Z M 3.25 -7.671875 C 3.25 -7.179688 3.488281 -6.601562 3.96875 -5.9375 C 4.539062 -6.238281 4.972656 -6.523438 5.265625 -6.796875 C 5.566406 -7.066406 5.71875 -7.398438 5.71875 -7.796875 C 5.71875 -8.117188 5.609375 -8.375 5.390625 -8.5625 C 5.179688 -8.757812 4.894531 -8.859375 4.53125 -8.859375 C 4.15625 -8.859375 3.847656 -8.742188 3.609375 -8.515625 C 3.367188 -8.296875 3.25 -8.015625 3.25 -7.671875 Z M 3.9375 -1.140625 C 4.625 -1.140625 5.296875 -1.457031 5.953125 -2.09375 C 4.835938 -3.207031 4.039062 -4.035156 3.5625 -4.578125 C 3.113281 -4.316406 2.757812 -4.046875 2.5 -3.765625 C 2.25 -3.492188 2.125 -3.171875 2.125 -2.796875 C 2.125 -2.316406 2.296875 -1.921875 2.640625 -1.609375 C 2.984375 -1.296875 3.414062 -1.140625 3.9375 -1.140625 Z M 3.9375 -1.140625 "/></g></g></g><g fill="#113f3d" fill-opacity="1"><g transform="translate(249.815613, 17.360826)"><g/></g></g><g fill="#113f3d" fill-opacity="1"><g transform="translate(255.525598, 17.360826)"><g/></g></g><g fill="#113f3d" fill-opacity="1"><g transform="translate(261.241397, 17.360826)"><g><path d="M 4.515625 -9.875 C 5.773438 -9.875 6.914062 -9.535156 7.9375 -8.859375 L 7.25 -7.40625 C 6.25 -8.007812 5.289062 -8.3125 4.375 -8.3125 C 3.882812 -8.3125 3.492188 -8.222656 3.203125 -8.046875 C 2.921875 -7.867188 2.78125 -7.613281 2.78125 -7.28125 C 2.78125 -6.957031 2.910156 -6.679688 3.171875 -6.453125 C 3.429688 -6.234375 3.757812 -6.066406 4.15625 -5.953125 C 4.550781 -5.847656 4.976562 -5.710938 5.4375 -5.546875 C 5.894531 -5.390625 6.316406 -5.21875 6.703125 -5.03125 C 7.097656 -4.851562 7.421875 -4.566406 7.671875 -4.171875 C 7.929688 -3.785156 8.0625 -3.316406 8.0625 -2.765625 C 8.0625 -1.910156 7.71875 -1.222656 7.03125 -0.703125 C 6.34375 -0.191406 5.457031 0.0625 4.375 0.0625 C 3.625 0.0625 2.894531 -0.078125 2.1875 -0.359375 C 1.488281 -0.640625 0.878906 -1.019531 0.359375 -1.5 L 1.078125 -2.921875 C 1.566406 -2.460938 2.109375 -2.109375 2.703125 -1.859375 C 3.296875 -1.617188 3.859375 -1.5 4.390625 -1.5 C 4.972656 -1.5 5.425781 -1.601562 5.75 -1.8125 C 6.070312 -2.019531 6.234375 -2.3125 6.234375 -2.6875 C 6.234375 -3.019531 6.101562 -3.300781 5.84375 -3.53125 C 5.582031 -3.757812 5.253906 -3.925781 4.859375 -4.03125 C 4.460938 -4.144531 4.035156 -4.273438 3.578125 -4.421875 C 3.117188 -4.578125 2.691406 -4.742188 2.296875 -4.921875 C 1.910156 -5.097656 1.585938 -5.375 1.328125 -5.75 C 1.066406 -6.132812 0.9375 -6.597656 0.9375 -7.140625 C 0.9375 -7.972656 1.257812 -8.632812 1.90625 -9.125 C 2.5625 -9.625 3.429688 -9.875 4.515625 -9.875 Z M 4.515625 -9.875 "/></g></g></g><g fill="#113f3d" fill-opacity="1"><g transform="translate(272.04454, 17.360826)"><g><path d="M 8.28125 -8.3125 L 2.9375 -8.3125 L 2.9375 -5.671875 L 7.734375 -5.671875 L 7.734375 -4.1875 L 2.9375 -4.1875 L 2.9375 -1.484375 L 8.453125 -1.484375 L 8.453125 0 L 1.28125 0 L 1.28125 -9.796875 L 8.28125 -9.796875 Z M 8.28125 -8.3125 "/></g></g></g><g fill="#113f3d" fill-opacity="1"><g transform="translate(283.323426, 17.360826)"><g><path d="M 7.5 0 L 5.71875 -2.96875 C 5.625 -2.957031 5.472656 -2.953125 5.265625 -2.953125 L 2.9375 -2.953125 L 2.9375 0 L 1.28125 0 L 1.28125 -9.796875 L 5.265625 -9.796875 C 6.515625 -9.796875 7.484375 -9.503906 8.171875 -8.921875 C 8.867188 -8.335938 9.21875 -7.515625 9.21875 -6.453125 C 9.21875 -5.671875 9.039062 -5.007812 8.6875 -4.46875 C 8.332031 -3.925781 7.832031 -3.53125 7.1875 -3.28125 L 9.375 0 Z M 2.9375 -4.4375 L 5.265625 -4.4375 C 6.847656 -4.4375 7.640625 -5.09375 7.640625 -6.40625 C 7.640625 -7.675781 6.847656 -8.3125 5.265625 -8.3125 L 2.9375 -8.3125 Z M 2.9375 -4.4375 "/></g></g></g><g fill="#113f3d" fill-opacity="1"><g transform="translate(295.539778, 17.360826)"><g><path d="M 5.65625 0 L 3.953125 0 L 0.046875 -9.796875 L 1.8125 -9.796875 L 4.84375 -1.828125 L 7.890625 -9.796875 L 9.625 -9.796875 Z M 5.65625 0 "/></g></g></g><g fill="#113f3d" fill-opacity="1"><g transform="translate(307.294393, 17.360826)"><g><path d="M 2.9375 0 L 1.28125 0 L 1.28125 -9.796875 L 2.9375 -9.796875 Z M 2.9375 0 "/></g></g></g><g fill="#113f3d" fill-opacity="1"><g transform="translate(313.620034, 17.360826)"><g><path d="M 5.625 -9.84375 C 6.3125 -9.84375 6.984375 -9.707031 7.640625 -9.4375 C 8.304688 -9.175781 8.878906 -8.804688 9.359375 -8.328125 L 8.390625 -7.125 C 8.035156 -7.507812 7.613281 -7.8125 7.125 -8.03125 C 6.632812 -8.257812 6.144531 -8.375 5.65625 -8.375 C 4.675781 -8.375 3.847656 -8.039062 3.171875 -7.375 C 2.492188 -6.707031 2.15625 -5.890625 2.15625 -4.921875 C 2.15625 -3.953125 2.492188 -3.132812 3.171875 -2.46875 C 3.847656 -1.800781 4.675781 -1.46875 5.65625 -1.46875 C 6.675781 -1.46875 7.585938 -1.851562 8.390625 -2.625 L 9.359375 -1.546875 C 8.859375 -1.046875 8.269531 -0.648438 7.59375 -0.359375 C 6.925781 -0.078125 6.253906 0.0625 5.578125 0.0625 C 4.140625 0.0625 2.925781 -0.410156 1.9375 -1.359375 C 0.957031 -2.316406 0.46875 -3.5 0.46875 -4.90625 C 0.46875 -6.300781 0.960938 -7.472656 1.953125 -8.421875 C 2.953125 -9.367188 4.175781 -9.84375 5.625 -9.84375 Z M 5.625 -9.84375 "/></g></g></g><g fill="#113f3d" fill-opacity="1"><g transform="translate(325.472587, 17.360826)"><g><path d="M 8.28125 -8.3125 L 2.9375 -8.3125 L 2.9375 -5.671875 L 7.734375 -5.671875 L 7.734375 -4.1875 L 2.9375 -4.1875 L 2.9375 -1.484375 L 8.453125 -1.484375 L 8.453125 0 L 1.28125 0 L 1.28125 -9.796875 L 8.28125 -9.796875 Z M 8.28125 -8.3125 "/></g></g></g><g fill="#113f3d" fill-opacity="1"><g transform="translate(336.757016, 17.360826)"><g/></g></g><g fill="#113f3d" fill-opacity="1"><g transform="translate(342.467001, 17.360826)"><g/></g></g></g></g></g><g mask="url(#dd60a06fa1)"><g transform="matrix(1, 0, 0, 1, 45, 3)"><g clip-path="url(#93fa1c795d)"><path fill="#ff035e" d="M 142.574219 129.792969 C 193.5625 137.992188 197.484375 161.898438 219.902344 129.644531 C 223.078125 125.078125 256.167969 132.183594 267.742188 185.128906 C 271.019531 200.121094 241.515625 186.34375 229.382812 191.207031 C 191.082031 206.574219 162.816406 194.117188 149.703125 165.15625 C 142.882812 150.054688 133.578125 128.34375 142.574219 129.792969 Z M 142.574219 129.792969 " fill-opacity="1" fill-rule="nonzero"/><g clip-path="url(#a851fea850)"><path stroke-linecap="butt" transform="matrix(0.992786, 0, 0, 0.992786, 9.539912, 10.459979)" fill="none" stroke-linejoin="miter" d="M 134.001025 120.200144 C 185.359822 128.458944 189.310196 152.538913 211.891069 120.050628 C 215.089927 115.451039 248.420225 122.608141 260.078549 175.93819 C 263.379709 191.039321 233.661407 177.161862 221.440429 182.060483 C 182.861328 197.539339 154.390306 184.991786 141.181735 155.820399 C 134.311861 140.609098 124.939559 118.740394 134.001025 120.200144 Z M 134.001025 120.200144 " stroke="#fafaf9" stroke-width="2" stroke-opacity="1" stroke-miterlimit="10"/></g><path fill="#ff035e" d="M 49.847656 199.011719 C 32.96875 209.484375 32.234375 203.558594 31.75 200.0625 C 25.34375 153.917969 58.972656 129.246094 64.511719 135.679688 C 89.527344 164.898438 120.007812 131.023438 134.652344 127.597656 C 137.101562 127.03125 153.902344 167.984375 130.191406 182.667969 C 89.09375 208.113281 74.457031 183.78125 49.847656 199.011719 Z M 49.847656 199.011719 " fill-opacity="1" fill-rule="nonzero"/><g clip-path="url(#ef63198936)"><path stroke-linecap="butt" transform="matrix(0.992786, 0, 0, 0.992786, 9.539912, 10.459979)" fill="none" stroke-linejoin="miter" d="M 40.600648 189.921885 C 23.599088 200.470642 22.859377 194.5018 22.371482 190.980302 C 15.91868 144.500453 49.791957 119.649295 55.37127 126.12964 C 80.568675 155.560713 111.270636 121.439554 126.021584 117.988879 C 128.488601 117.418357 145.411468 158.669075 121.528231 173.45937 C 80.131931 199.089585 65.388852 174.580741 40.600648 189.921885 Z M 40.600648 189.921885 " stroke="#fafaf9" stroke-width="2" stroke-opacity="1" stroke-miterlimit="10"/></g><path fill="#ff035e" d="M 126.09375 117.679688 C 129.65625 126.476562 138.632812 133.992188 141.402344 136.019531 C 144.777344 138.480469 148.628906 132.75 157.066406 119.359375 C 160.402344 114.066406 162.566406 99.582031 175.929688 95.3125 C 196.609375 88.691406 200.957031 84.859375 207.769531 88.691406 C 213.042969 91.667969 193.96875 55.769531 181.859375 44.144531 C 179.027344 41.425781 151.082031 17.589844 150.484375 16.855469 C 145.710938 11.273438 144.171875 11.453125 143.140625 11.453125 C 140.238281 11.5625 138.503906 12.851562 136.050781 16.8125 C 133.023438 21.707031 109.511719 43.351562 98.503906 55.53125 C 90.800781 64.011719 72.460938 96.386719 77.65625 92.710938 C 86.589844 86.347656 93.203125 90.449219 110.089844 96.882812 C 119.113281 100.296875 122.359375 108.496094 126.09375 117.679688 Z M 126.09375 117.679688 " fill-opacity="1" fill-rule="nonzero"/><g clip-path="url(#414015d1af)"><path stroke-linecap="butt" transform="matrix(0.992786, 0, 0, 0.992786, 9.539912, 10.459979)" fill="none" stroke-linejoin="miter" d="M 117.400798 107.99884 C 120.989185 116.859639 130.030978 124.429877 132.820634 126.471953 C 136.220159 128.950773 140.09971 123.178663 148.598523 109.690733 C 151.958701 104.359302 154.138489 89.769673 167.598877 85.469117 C 188.428837 78.79991 192.808087 74.940032 199.670091 78.79991 C 204.981849 81.798102 185.769024 45.638802 173.571654 33.929327 C 170.719043 31.19082 142.570661 7.181675 141.968662 6.441963 C 137.160537 0.819369 135.610291 1.000362 134.571547 1.000362 C 131.648113 1.110532 129.901135 2.408962 127.430184 6.398682 C 124.380841 11.328781 100.69827 33.130596 89.610468 45.398789 C 81.851366 53.940883 63.378253 86.551142 68.611318 82.84865 C 77.609829 76.439128 84.271167 80.570496 101.280596 87.05084 C 110.369604 90.489712 113.639286 98.748512 117.400798 107.99884 Z M 117.400798 107.99884 " stroke="#fafaf9" stroke-width="2" stroke-opacity="1" stroke-miterlimit="10"/></g><path fill="#ff035e" d="M 160.097656 195.566406 C 152.410156 202.324219 153.730469 227.335938 147.359375 227.335938 C 141.171875 227.335938 141.691406 204.011719 131.773438 194.226562 C 129.25 191.742188 121.1875 189.460938 121.625 183.484375 C 121.972656 178.828125 125.449219 172.164062 135.324219 161.589844 C 140.449219 156.121094 143.347656 156.101562 145.15625 156.0625 C 147.714844 156.011719 151.476562 159.109375 155.707031 162.832031 C 160.601562 167.140625 170.597656 178.101562 168.265625 185.667969 C 167.671875 188.167969 165.289062 191 160.097656 195.566406 Z M 160.097656 195.566406 " fill-opacity="1" fill-rule="nonzero"/><g clip-path="url(#48b5f11508)"><path stroke-linecap="butt" transform="matrix(0.992786, 0, 0, 0.992786, 9.539912, 10.459979)" fill="none" stroke-linejoin="miter" d="M 151.6518 186.451536 C 143.908437 193.258456 145.238344 218.451926 138.820953 218.451926 C 132.588491 218.451926 133.111797 194.958218 123.121758 185.101956 C 120.579983 182.599528 112.458896 180.301701 112.899575 174.281709 C 113.249758 169.591623 116.751583 162.879135 126.698342 152.228077 C 131.860583 146.719587 134.780083 146.699914 136.601819 146.660568 C 139.179005 146.609417 142.968059 149.729583 147.229269 153.479291 C 152.159368 157.819194 162.2281 168.859781 159.879122 176.48117 C 159.281058 178.999337 156.88093 181.851947 151.6518 186.451536 Z M 151.6518 186.451536 " stroke="#fafaf9" stroke-width="2" stroke-opacity="1" stroke-miterlimit="10"/></g><path fill="#ff035e" d="M 10.601562 105.121094 C 9.539062 101.796875 22.257812 91.777344 36.542969 85.652344 C 46.066406 81.574219 63.050781 74.324219 86.976562 74.324219 C 98.800781 74.324219 116.472656 81.125 121.527344 97.269531 C 124.980469 108.320312 125.882812 111.953125 131.1875 119.4375 C 137.917969 128.929688 143.097656 127.570312 144.410156 127.449219 C 149.898438 126.972656 153.5625 121.394531 155.609375 118.296875 C 160.441406 110.8125 160.304688 104.773438 162.179688 98.816406 C 166.152344 86.128906 176.566406 77.175781 186.085938 74.773438 C 208.921875 68.976562 243.222656 73.480469 274.59375 97.101562 C 276.898438 98.835938 262.074219 96.027344 254.132812 103.535156 C 251.222656 106.273438 225.621094 139.480469 221.183594 142.90625 C 210.597656 151.058594 193.382812 154.742188 181.402344 150.640625 C 166.589844 145.578125 164.136719 131.480469 157.085938 134.320312 C 148.957031 137.585938 149.027344 156.160156 144.886719 156.070312 C 140.746094 155.984375 141.105469 138.203125 133.6875 135.460938 C 127.851562 133.328125 124.046875 143.085938 110.855469 149.777344 C 107.566406 151.4375 92.875 158.386719 77.226562 153.222656 C 70.398438 150.96875 64.449219 146.195312 63.28125 145.28125 C 60.078125 142.621094 57.097656 139.734375 54.34375 136.613281 C 45.199219 126.785156 45.410156 124.996094 39.085938 118.863281 C 30.527344 110.523438 26.121094 108.667969 24.332031 107.941406 C 16.351562 104.984375 11.257812 107.148438 10.601562 105.121094 Z M 10.601562 105.121094 " fill-opacity="1" fill-rule="nonzero"/><g clip-path="url(#1a55a33699)"><path stroke-linecap="butt" transform="matrix(0.992786, 0, 0, 0.992786, 9.539912, 10.459979)" fill="none" stroke-linejoin="miter" d="M 1.069366 95.348986 C -0.000855276 92.000612 12.810318 81.908272 27.19928 75.738763 C 36.791921 71.631004 53.899716 64.32832 77.999358 64.32832 C 89.9095 64.32832 107.709791 71.178521 112.801209 87.440369 C 116.279427 98.571453 117.188328 102.230664 122.531563 109.769425 C 129.31094 119.33059 134.528266 117.961337 135.850304 117.839363 C 141.378466 117.359337 145.069155 111.740678 147.130904 108.620512 C 151.998048 101.08175 151.860335 94.998804 153.74896 88.998485 C 157.750485 76.218789 168.240223 67.200604 177.82893 64.780803 C 200.830808 58.941804 235.380843 63.478439 266.9799 87.27118 C 269.301335 89.018158 254.369393 86.189155 246.370279 93.751524 C 243.438976 96.509704 217.651375 129.95804 213.181629 133.408715 C 202.518767 141.6203 185.178829 145.330661 173.111302 141.199294 C 158.191164 136.100006 155.720213 121.899907 148.618196 124.760387 C 140.430219 128.049742 140.501043 146.758934 136.330329 146.668437 C 132.159616 146.581875 132.521602 128.671414 125.049729 125.9093 C 119.171384 123.760989 115.339049 133.589709 102.051785 140.329739 C 98.738822 142.001959 83.940658 149.001676 68.178508 143.800088 C 61.300765 141.529803 55.308316 136.721678 54.13186 135.800974 C 50.905458 133.121487 47.903332 130.213791 45.129414 127.070018 C 35.918432 117.170475 36.130902 115.368412 29.760727 109.191034 C 21.139941 100.790587 16.701672 98.921635 14.899609 98.189793 C 6.861149 95.211274 1.730384 97.391062 1.069366 95.348986 Z M 1.069366 95.348986 " stroke="#fafaf9" stroke-width="2" stroke-opacity="1" stroke-miterlimit="10"/></g><path stroke-linecap="butt" transform="matrix(0.992786, 0, 0, 0.992786, 9.539912, 10.459979)" fill-opacity="1" fill="#ff035e" fill-rule="nonzero" stroke-linejoin="miter" d="M 114.308174 129.820328 C 114.308174 138.358487 138.018288 150.819477 131.78976 145.279511 C 114.308174 129.820328 118.498561 129.808524 131.78976 114.349341 C 138.789476 106.220384 114.308174 121.278234 114.308174 129.820328 Z M 114.308174 129.820328 " stroke="#fafaf9" stroke-width="2" stroke-opacity="1" stroke-miterlimit="10"/><path stroke-linecap="butt" transform="matrix(0.992786, 0, 0, 0.992786, 9.539912, 10.459979)" fill-opacity="1" fill="#ff035e" fill-rule="nonzero" stroke-linejoin="miter" d="M 158.509869 129.399322 C 158.509869 137.961089 133.438372 151.350653 140.119383 144.909655 C 154.929351 130.619059 154.929351 130.359373 140.119383 113.908662 C 134.001025 107.070266 158.509869 120.829686 158.509869 129.399322 Z M 158.509869 129.399322 " stroke="#fafaf9" stroke-width="2" stroke-opacity="1" stroke-miterlimit="10"/><path stroke-linecap="butt" transform="matrix(0.992786, 0, 0, 0.992786, 9.539912, 10.459979)" fill-opacity="1" fill="#ff035e" fill-rule="nonzero" stroke-linejoin="miter" d="M 129.000103 111.791828 C 132.210766 114.530334 132.431105 119.440759 136.649035 119.440759 C 140.870899 119.440759 140.080037 111.791828 144.30977 111.791828 C 145.360318 111.791828 140.811879 103.261538 136.590015 103.261538 C 132.368151 103.261538 127.410511 110.461921 129.000103 111.791828 Z M 129.000103 111.791828 " stroke="#fafaf9" stroke-width="2" stroke-opacity="1" stroke-miterlimit="10"/></g></g></g></svg>