<svg xmlns="http://www.w3.org/2000/svg" xmlns:xlink="http://www.w3.org/1999/xlink" width="500" zoomAndPan="magnify" viewBox="0 0 375 299.999988" height="400" preserveAspectRatio="xMidYMid meet" version="1.0"><defs><filter x="0%" y="0%" width="100%" height="100%" id="c50b8206ba"><feColorMatrix values="0 0 0 0 1 0 0 0 0 1 0 0 0 0 1 0 0 0 1 0" color-interpolation-filters="sRGB"/></filter><g/><mask id="0f574a778c"><g filter="url(#c50b8206ba)"><rect x="-37.5" width="450" fill="#000000" y="-29.999999" height="359.999986" fill-opacity="0.85"/></g></mask><clipPath id="f47a3c6222"><path d="M 71 63 L 187.609375 63 L 187.609375 152 L 71 152 Z M 71 63 " clip-rule="nonzero"/></clipPath><clipPath id="125d4f6af7"><path d="M 0.859375 62 L 114 62 L 114 152.785156 L 0.859375 152.785156 Z M 0.859375 62 " clip-rule="nonzero"/></clipPath><clipPath id="1bed855755"><path d="M 28 0.535156 L 161 0.535156 L 161 109 L 28 109 Z M 28 0.535156 " clip-rule="nonzero"/></clipPath><clipPath id="8cc61c633d"><path d="M 79 102 L 113 102 L 113 152.785156 L 79 152.785156 Z M 79 102 " clip-rule="nonzero"/></clipPath><clipPath id="61b8c9ac76"><path d="M 59 82 L 133 82 L 133 152.785156 L 59 152.785156 Z M 59 82 " clip-rule="nonzero"/></clipPath><clipPath id="58a54176f7"><path d="M 0.859375 24 L 187.609375 24 L 187.609375 122 L 0.859375 122 Z M 0.859375 24 " clip-rule="nonzero"/></clipPath><clipPath id="149b17eb7b"><rect x="0" width="189" y="0" height="154"/></clipPath></defs><g mask="url(#0f574a778c)"><g transform="matrix(1, 0, 0, 1, 89, 53)"><g clip-path="url(#149b17eb7b)"><path fill="#000000" d="M 94.15625 83.917969 C 129.832031 89.648438 132.574219 106.355469 148.261719 83.816406 C 150.484375 80.625 173.636719 85.589844 181.734375 122.585938 C 184.027344 133.0625 163.382812 123.433594 154.894531 126.832031 C 128.097656 137.570312 108.320312 128.867188 99.144531 108.628906 C 94.371094 98.078125 87.863281 82.90625 94.15625 83.917969 Z M 94.15625 83.917969 " fill-opacity="1" fill-rule="nonzero"/><g clip-path="url(#f47a3c6222)"><path stroke-linecap="butt" transform="matrix(0.69463, 0, 0, 0.693717, 1.075747, 0.53482)" fill="none" stroke-linejoin="miter" d="M 134.000152 120.197716 C 185.359566 128.458249 189.307262 152.541616 211.891233 120.051313 C 215.091004 115.450866 248.421481 122.607742 260.078994 175.938014 C 263.379988 191.040092 233.659797 177.159919 221.439934 182.058804 C 182.862733 197.538153 154.390958 184.992504 141.18136 155.818801 C 134.309444 140.609735 124.940695 118.739312 134.000152 120.197716 Z M 134.000152 120.197716 " stroke="#fafaf9" stroke-width="2" stroke-opacity="1" stroke-miterlimit="10"/></g><path fill="#000000" d="M 29.277344 132.285156 C 17.46875 139.605469 16.953125 135.460938 16.613281 133.019531 C 12.132812 100.777344 35.660156 83.539062 39.539062 88.035156 C 57.042969 108.449219 78.367188 84.78125 88.613281 82.386719 C 90.328125 81.992188 102.082031 110.605469 85.492188 120.867188 C 56.738281 138.648438 46.496094 121.644531 29.277344 132.285156 Z M 29.277344 132.285156 " fill-opacity="1" fill-rule="nonzero"/><g clip-path="url(#125d4f6af7)"><path stroke-linecap="butt" transform="matrix(0.69463, 0, 0, 0.693717, 1.075747, 0.53482)" fill="none" stroke-linejoin="miter" d="M 40.599461 189.919543 C 23.599624 200.471853 22.857322 194.497466 22.368078 190.978152 C 15.917925 144.500688 49.788258 119.651519 55.372392 126.132687 C 80.57129 155.55978 111.26997 121.442145 126.020407 117.990403 C 128.489123 117.421681 145.410231 158.668038 121.527231 173.460417 C 80.132657 199.092282 65.387843 174.580966 40.599461 189.919543 Z M 40.599461 189.919543 " stroke="#fafaf9" stroke-width="2" stroke-opacity="1" stroke-miterlimit="10"/></g><path fill="#000000" d="M 82.625 75.457031 C 85.117188 81.601562 91.398438 86.855469 93.335938 88.269531 C 95.699219 89.988281 98.394531 85.988281 104.296875 76.628906 C 106.632812 72.929688 108.144531 62.808594 117.496094 59.828125 C 131.964844 55.199219 135.007812 52.523438 139.773438 55.199219 C 143.460938 57.28125 130.117188 32.195312 121.644531 24.074219 C 119.664062 22.171875 100.109375 5.515625 99.691406 5.003906 C 96.351562 1.105469 95.273438 1.230469 94.550781 1.230469 C 92.523438 1.304688 91.308594 2.207031 89.59375 4.972656 C 87.472656 8.394531 71.023438 23.519531 63.320312 32.03125 C 57.929688 37.953125 45.101562 60.574219 48.734375 58.007812 C 54.984375 53.5625 59.613281 56.425781 71.429688 60.921875 C 77.742188 63.308594 80.011719 69.039062 82.625 75.457031 Z M 82.625 75.457031 " fill-opacity="1" fill-rule="nonzero"/><g clip-path="url(#1bed855755)"><path stroke-linecap="butt" transform="matrix(0.69463, 0, 0, 0.693717, 1.075747, 0.53482)" fill="none" stroke-linejoin="miter" d="M 117.399583 108.001183 C 120.987376 116.858591 130.029962 124.432154 132.819217 126.470541 C 136.221434 128.948138 140.101648 123.182094 148.598755 109.690453 C 151.961607 104.357989 154.137901 89.768322 167.600557 85.471944 C 188.429996 78.799326 192.810702 74.942158 199.67137 78.799326 C 204.979953 81.800596 185.770081 45.638945 173.572713 33.9323 C 170.721599 31.19005 142.570364 7.179885 141.968649 6.442237 C 137.160558 0.822597 135.608472 1.002785 134.568125 1.002785 C 131.649529 1.109773 129.900621 2.410511 127.431905 6.397189 C 124.378345 11.329859 100.697792 33.132711 89.608252 45.402447 C 81.847824 53.938894 63.380254 86.547447 68.610108 82.847944 C 77.607706 76.439978 84.271552 80.567429 101.282636 87.048597 C 110.37021 90.489078 113.637463 98.749611 117.399583 108.001183 Z M 117.399583 108.001183 " stroke="#fafaf9" stroke-width="2" stroke-opacity="1" stroke-miterlimit="10"/></g><g clip-path="url(#8cc61c633d)"><path fill="#000000" d="M 106.417969 129.878906 C 101.039062 134.601562 101.964844 152.078125 97.503906 152.078125 C 93.175781 152.078125 93.539062 135.78125 86.597656 128.941406 C 84.835938 127.207031 79.195312 125.613281 79.5 121.4375 C 79.742188 118.183594 82.171875 113.527344 89.085938 106.140625 C 92.667969 102.316406 94.699219 102.304688 95.960938 102.273438 C 97.753906 102.242188 100.386719 104.40625 103.347656 107.007812 C 106.769531 110.015625 113.765625 117.675781 112.132812 122.960938 C 111.714844 124.710938 110.050781 126.6875 106.417969 129.878906 Z M 106.417969 129.878906 " fill-opacity="1" fill-rule="nonzero"/></g><g clip-path="url(#61b8c9ac76)"><path stroke-linecap="butt" transform="matrix(0.69463, 0, 0, 0.693717, 1.075747, 0.53482)" fill="none" stroke-linejoin="miter" d="M 151.652314 186.450907 C 143.908757 193.258668 145.241526 218.451323 138.81949 218.451323 C 132.588654 218.451323 133.111639 194.9592 123.118682 185.099491 C 120.582484 182.59937 112.462151 180.301963 112.900784 174.282528 C 113.249441 169.591987 116.747258 162.879952 126.70085 152.231917 C 131.857599 146.719264 134.781818 146.702371 136.598208 146.657324 C 139.179394 146.612277 142.969632 149.731796 147.232244 153.481977 C 152.158429 157.817771 162.230116 168.85997 159.879493 176.47858 C 159.277779 179.001224 156.882168 181.850461 151.652314 186.450907 Z M 151.652314 186.450907 " stroke="#fafaf9" stroke-width="2" stroke-opacity="1" stroke-miterlimit="10"/></g><path fill="#000000" d="M 1.820312 66.679688 C 1.074219 64.355469 9.972656 57.355469 19.96875 53.078125 C 26.632812 50.226562 38.515625 45.160156 55.257812 45.160156 C 63.53125 45.160156 75.894531 49.914062 79.429688 61.195312 C 81.847656 68.914062 82.480469 71.453125 86.1875 76.683594 C 90.898438 83.316406 94.523438 82.367188 95.441406 82.28125 C 99.28125 81.949219 101.84375 78.050781 103.277344 75.886719 C 106.660156 70.65625 106.5625 66.4375 107.875 62.277344 C 110.652344 53.410156 117.941406 47.152344 124.601562 45.472656 C 140.578125 41.421875 164.578125 44.570312 186.527344 61.074219 C 188.140625 62.289062 177.769531 60.328125 172.210938 65.570312 C 170.175781 67.484375 152.261719 90.691406 149.15625 93.082031 C 141.753906 98.777344 129.707031 101.351562 121.324219 98.488281 C 110.960938 94.949219 109.242188 85.097656 104.3125 87.082031 C 98.621094 89.363281 98.671875 102.34375 95.773438 102.28125 C 92.878906 102.21875 93.128906 89.796875 87.9375 87.878906 C 83.855469 86.390625 81.195312 93.207031 71.960938 97.882812 C 69.664062 99.042969 59.382812 103.898438 48.4375 100.292969 C 43.65625 98.714844 39.496094 95.378906 38.675781 94.742188 C 36.433594 92.882812 34.351562 90.867188 32.425781 88.683594 C 26.027344 81.816406 26.171875 80.570312 21.746094 76.28125 C 15.761719 70.453125 12.675781 69.15625 11.425781 68.652344 C 5.839844 66.582031 2.277344 68.097656 1.820312 66.679688 Z M 1.820312 66.679688 " fill-opacity="1" fill-rule="nonzero"/><g clip-path="url(#58a54176f7)"><path stroke-linecap="butt" transform="matrix(0.69463, 0, 0, 0.693717, 1.075747, 0.53482)" fill="none" stroke-linejoin="miter" d="M 1.071888 95.348546 C -0.0022004 91.99816 12.80813 81.907583 27.198663 75.741746 C 36.792352 71.631187 53.899035 64.327908 78.001351 64.327908 C 89.911921 64.327908 107.710295 71.180715 112.799561 87.44276 C 116.280507 98.569422 117.191514 102.229508 122.528214 109.769286 C 129.310154 119.330557 134.528761 117.962248 135.850283 117.838368 C 141.378182 117.359742 145.067197 111.740101 147.131021 108.620582 C 152.000971 101.080804 151.860384 94.99943 153.749879 89.00252 C 157.748187 76.220373 168.241636 67.199668 177.829701 64.77838 C 200.829811 58.939135 235.380588 63.477642 266.979027 87.268202 C 269.301532 89.019412 254.371143 86.1927 246.368904 93.74937 C 243.439061 96.508512 217.649696 129.9617 213.179014 133.407812 C 202.522484 141.617667 185.179614 145.328431 173.111586 141.20098 C 158.192443 136.099383 155.718104 121.898248 148.621249 124.758747 C 140.427811 128.047193 140.500916 146.75868 136.32828 146.668586 C 132.161268 146.578491 132.521172 128.672223 125.047542 125.907451 C 119.170985 123.762077 115.341383 133.588001 102.047432 140.32819 C 98.740814 142.000568 83.939766 148.999779 68.182722 143.802457 C 61.29956 141.527572 55.310533 136.718782 54.129599 135.800945 C 50.90171 133.120636 47.904386 130.21509 45.132001 127.067416 C 35.92071 117.168291 36.128779 115.372033 29.757355 109.189303 C 21.142155 100.787997 16.699591 98.918538 14.900071 98.192152 C 6.858468 95.207774 1.729837 97.392564 1.071888 95.348546 Z M 1.071888 95.348546 " stroke="#fafaf9" stroke-width="2" stroke-opacity="1" stroke-miterlimit="10"/></g><path stroke-linecap="butt" transform="matrix(0.69463, 0, 0, 0.693717, 1.075747, 0.53482)" fill-opacity="1" fill="#000000" fill-rule="nonzero" stroke-linejoin="miter" d="M 114.312283 129.820927 C 114.312283 138.357375 138.020953 150.81856 131.790117 145.277753 C 114.312283 129.820927 118.501789 129.809666 131.790117 114.347209 C 138.791373 106.221818 114.312283 121.278849 114.312283 129.820927 Z M 114.312283 129.820927 " stroke="#fafaf9" stroke-width="2" stroke-opacity="1" stroke-miterlimit="10"/><path stroke-linecap="butt" transform="matrix(0.69463, 0, 0, 0.693717, 1.075747, 0.53482)" fill-opacity="1" fill="#000000" fill-rule="nonzero" stroke-linejoin="miter" d="M 158.507359 129.39861 C 158.507359 137.957581 133.437802 151.347865 140.118518 144.911744 C 154.930814 130.620515 154.930814 130.361494 140.118518 113.907999 C 134.000152 107.072084 158.507359 120.828377 158.507359 129.39861 Z M 158.507359 129.39861 " stroke="#fafaf9" stroke-width="2" stroke-opacity="1" stroke-miterlimit="10"/><path stroke-linecap="butt" transform="matrix(0.69463, 0, 0, 0.693717, 1.075747, 0.53482)" fill-opacity="1" fill="#000000" fill-rule="nonzero" stroke-linejoin="miter" d="M 129.000861 111.79078 C 132.211879 114.527398 132.431196 119.437544 136.64882 119.437544 C 140.872067 119.437544 140.079154 111.79078 144.308025 111.79078 C 145.359619 111.79078 140.810209 103.259963 136.592585 103.259963 C 132.369337 103.259963 127.409411 110.461887 129.000861 111.79078 Z M 129.000861 111.79078 " stroke="#fafaf9" stroke-width="2" stroke-opacity="1" stroke-miterlimit="10"/></g></g></g><g fill="#404040" fill-opacity="1"><g transform="translate(60.203576, 143.33446)"><g><path d="M 5.671875 -5.703125 L 2.015625 -5.703125 L 2.015625 -3.890625 L 5.296875 -3.890625 L 5.296875 -2.875 L 2.015625 -2.875 L 2.015625 -1.015625 L 5.796875 -1.015625 L 5.796875 0 L 0.875 0 L 0.875 -6.71875 L 5.671875 -6.71875 Z M 5.671875 -5.703125 "/></g></g></g><g fill="#404040" fill-opacity="1"><g transform="translate(68.409562, 143.33446)"><g><path d="M 3.09375 -6.765625 C 3.957031 -6.765625 4.738281 -6.535156 5.4375 -6.078125 L 4.96875 -5.078125 C 4.28125 -5.492188 3.625 -5.703125 3 -5.703125 C 2.664062 -5.703125 2.398438 -5.640625 2.203125 -5.515625 C 2.003906 -5.390625 1.90625 -5.210938 1.90625 -4.984375 C 1.90625 -4.765625 1.992188 -4.578125 2.171875 -4.421875 C 2.359375 -4.265625 2.582031 -4.148438 2.84375 -4.078125 C 3.113281 -4.003906 3.40625 -3.910156 3.71875 -3.796875 C 4.03125 -3.691406 4.320312 -3.578125 4.59375 -3.453125 C 4.863281 -3.328125 5.085938 -3.128906 5.265625 -2.859375 C 5.441406 -2.597656 5.53125 -2.28125 5.53125 -1.90625 C 5.53125 -1.3125 5.289062 -0.835938 4.8125 -0.484375 C 4.34375 -0.140625 3.738281 0.03125 3 0.03125 C 2.476562 0.03125 1.976562 -0.0625 1.5 -0.25 C 1.019531 -0.4375 0.601562 -0.695312 0.25 -1.03125 L 0.734375 -2 C 1.078125 -1.6875 1.453125 -1.445312 1.859375 -1.28125 C 2.265625 -1.113281 2.648438 -1.03125 3.015625 -1.03125 C 3.410156 -1.03125 3.71875 -1.097656 3.9375 -1.234375 C 4.15625 -1.378906 4.265625 -1.582031 4.265625 -1.84375 C 4.265625 -2.070312 4.175781 -2.265625 4 -2.421875 C 3.820312 -2.578125 3.597656 -2.691406 3.328125 -2.765625 C 3.054688 -2.835938 2.765625 -2.925781 2.453125 -3.03125 C 2.140625 -3.132812 1.847656 -3.242188 1.578125 -3.359375 C 1.316406 -3.484375 1.09375 -3.675781 0.90625 -3.9375 C 0.726562 -4.207031 0.640625 -4.523438 0.640625 -4.890625 C 0.640625 -5.460938 0.863281 -5.914062 1.3125 -6.25 C 1.757812 -6.59375 2.351562 -6.765625 3.09375 -6.765625 Z M 3.09375 -6.765625 "/></g></g></g><g fill="#404040" fill-opacity="1"><g transform="translate(76.289607, 143.33446)"><g><path d="M 5.46875 -5.703125 L 3.34375 -5.703125 L 3.34375 0 L 2.203125 0 L 2.203125 -5.703125 L 0.09375 -5.703125 L 0.09375 -6.71875 L 5.46875 -6.71875 Z M 5.46875 -5.703125 "/></g></g></g><g fill="#404040" fill-opacity="1"><g transform="translate(83.757432, 143.33446)"><g><path d="M 0.609375 -1 C 0.722656 -1.125 0.867188 -1.1875 1.046875 -1.1875 C 1.222656 -1.1875 1.367188 -1.125 1.484375 -1 C 1.597656 -0.882812 1.65625 -0.738281 1.65625 -0.5625 C 1.65625 -0.375 1.597656 -0.21875 1.484375 -0.09375 C 1.367188 0.03125 1.222656 0.09375 1.046875 0.09375 C 0.867188 0.09375 0.722656 0.03125 0.609375 -0.09375 C 0.492188 -0.21875 0.4375 -0.375 0.4375 -0.5625 C 0.4375 -0.738281 0.492188 -0.882812 0.609375 -1 Z M 0.609375 -1 "/></g></g></g><g fill="#404040" fill-opacity="1"><g transform="translate(287.400601, 143.33446)"><g><path d="M 2.578125 0 L 1.4375 0 L 1.4375 -5.703125 L 0.125 -5.703125 L 0.125 -6.71875 L 2.578125 -6.71875 Z M 2.578125 0 "/></g></g></g><g fill="#404040" fill-opacity="1"><g transform="translate(293.027828, 143.33446)"><g><path d="M 2.59375 0.046875 C 1.863281 0.046875 1.195312 -0.117188 0.59375 -0.453125 L 1.03125 -1.3125 C 1.46875 -1.03125 1.960938 -0.890625 2.515625 -0.890625 C 3.148438 -0.890625 3.625 -1.109375 3.9375 -1.546875 C 4.257812 -1.984375 4.410156 -2.570312 4.390625 -3.3125 C 4.035156 -2.6875 3.425781 -2.375 2.5625 -2.375 C 1.882812 -2.375 1.351562 -2.566406 0.96875 -2.953125 C 0.59375 -3.335938 0.40625 -3.859375 0.40625 -4.515625 C 0.40625 -5.203125 0.617188 -5.75 1.046875 -6.15625 C 1.472656 -6.5625 2.046875 -6.765625 2.765625 -6.765625 C 3.609375 -6.765625 4.273438 -6.472656 4.765625 -5.890625 C 5.253906 -5.316406 5.5 -4.515625 5.5 -3.484375 C 5.5 -2.410156 5.234375 -1.550781 4.703125 -0.90625 C 4.179688 -0.269531 3.476562 0.046875 2.59375 0.046875 Z M 2.765625 -3.265625 C 3.210938 -3.265625 3.566406 -3.382812 3.828125 -3.625 C 4.085938 -3.875 4.21875 -4.175781 4.21875 -4.53125 C 4.21875 -4.863281 4.097656 -5.15625 3.859375 -5.40625 C 3.617188 -5.65625 3.273438 -5.78125 2.828125 -5.78125 C 2.410156 -5.78125 2.078125 -5.664062 1.828125 -5.4375 C 1.578125 -5.21875 1.453125 -4.90625 1.453125 -4.5 C 1.453125 -4.113281 1.566406 -3.8125 1.796875 -3.59375 C 2.035156 -3.375 2.359375 -3.265625 2.765625 -3.265625 Z M 2.765625 -3.265625 "/></g></g></g><g fill="#404040" fill-opacity="1"><g transform="translate(300.840769, 143.33446)"><g><path d="M 5.234375 -5.859375 L 2.5625 0 L 1.359375 0 L 3.96875 -5.703125 L 1.359375 -5.703125 L 1.359375 -4.765625 L 0.359375 -4.765625 L 0.359375 -6.71875 L 5.234375 -6.71875 Z M 5.234375 -5.859375 "/></g></g></g><g fill="#404040" fill-opacity="1"><g transform="translate(308.222315, 143.33446)"><g><path d="M 1.359375 -6.3125 C 1.765625 -6.613281 2.3125 -6.765625 3 -6.765625 C 3.6875 -6.765625 4.234375 -6.609375 4.640625 -6.296875 C 5.046875 -5.984375 5.25 -5.5625 5.25 -5.03125 C 5.25 -4.707031 5.160156 -4.421875 4.984375 -4.171875 C 4.816406 -3.921875 4.578125 -3.726562 4.265625 -3.59375 C 4.679688 -3.457031 5.003906 -3.238281 5.234375 -2.9375 C 5.472656 -2.632812 5.59375 -2.28125 5.59375 -1.875 C 5.59375 -1.28125 5.359375 -0.8125 4.890625 -0.46875 C 4.429688 -0.125 3.800781 0.046875 3 0.046875 C 2.207031 0.046875 1.578125 -0.125 1.109375 -0.46875 C 0.648438 -0.8125 0.421875 -1.273438 0.421875 -1.859375 C 0.421875 -2.265625 0.539062 -2.617188 0.78125 -2.921875 C 1.03125 -3.234375 1.367188 -3.457031 1.796875 -3.59375 C 1.109375 -3.90625 0.765625 -4.394531 0.765625 -5.0625 C 0.765625 -5.59375 0.960938 -6.007812 1.359375 -6.3125 Z M 3 -5.953125 C 2.59375 -5.953125 2.273438 -5.863281 2.046875 -5.6875 C 1.828125 -5.519531 1.71875 -5.273438 1.71875 -4.953125 C 1.71875 -4.640625 1.828125 -4.398438 2.046875 -4.234375 C 2.273438 -4.066406 2.59375 -3.984375 3 -3.984375 C 3.40625 -3.984375 3.71875 -4.066406 3.9375 -4.234375 C 4.164062 -4.398438 4.28125 -4.640625 4.28125 -4.953125 C 4.28125 -5.273438 4.164062 -5.519531 3.9375 -5.6875 C 3.71875 -5.863281 3.40625 -5.953125 3 -5.953125 Z M 3 -3.09375 C 2.53125 -3.09375 2.160156 -2.992188 1.890625 -2.796875 C 1.628906 -2.609375 1.5 -2.335938 1.5 -1.984375 C 1.5 -1.617188 1.628906 -1.335938 1.890625 -1.140625 C 2.148438 -0.941406 2.519531 -0.84375 3 -0.84375 C 3.476562 -0.84375 3.847656 -0.941406 4.109375 -1.140625 C 4.378906 -1.335938 4.515625 -1.617188 4.515625 -1.984375 C 4.515625 -2.335938 4.378906 -2.609375 4.109375 -2.796875 C 3.847656 -2.992188 3.476562 -3.09375 3 -3.09375 Z M 3 -3.09375 "/></g></g></g><g fill="#404040" fill-opacity="1"><g transform="translate(49.497899, 228.478021)"><g><path d="M 3.828125 -9.5 L 0.0625 -9.5 L 0.0625 -12.234375 L 11.03125 -12.234375 L 11.03125 -9.5 L 7.296875 -9.5 L 7.296875 0 L 3.828125 0 Z M 3.828125 -9.5 "/></g></g></g><g fill="#404040" fill-opacity="1"><g transform="translate(69.480368, 228.478021)"><g><path d="M 12.875 -12.234375 L 12.875 0 L 9.40625 0 L 9.40625 -4.765625 L 4.6875 -4.765625 L 4.6875 0 L 1.21875 0 L 1.21875 -12.234375 L 4.6875 -12.234375 L 4.6875 -7.640625 L 9.40625 -7.640625 L 9.40625 -12.234375 Z M 12.875 -12.234375 "/></g></g></g><g fill="#404040" fill-opacity="1"><g transform="translate(92.448379, 228.478021)"><g><path d="M 11.046875 -2.671875 L 11.046875 0 L 1.21875 0 L 1.21875 -12.234375 L 10.828125 -12.234375 L 10.828125 -9.5625 L 4.65625 -9.5625 L 4.65625 -7.5 L 10.09375 -7.5 L 10.09375 -4.90625 L 4.65625 -4.90625 L 4.65625 -2.671875 Z M 11.046875 -2.671875 "/></g></g></g><g fill="#404040" fill-opacity="1"><g transform="translate(113.076853, 228.478021)"><g/></g></g><g fill="#404040" fill-opacity="1"><g transform="translate(127.053313, 228.478021)"><g><path d="M 6.8125 -12.234375 C 7.925781 -12.234375 8.890625 -12.050781 9.703125 -11.6875 C 10.515625 -11.320312 11.140625 -10.796875 11.578125 -10.109375 C 12.023438 -9.429688 12.25 -8.628906 12.25 -7.703125 C 12.25 -6.785156 12.023438 -5.988281 11.578125 -5.3125 C 11.140625 -4.632812 10.515625 -4.113281 9.703125 -3.75 C 8.890625 -3.382812 7.925781 -3.203125 6.8125 -3.203125 L 4.6875 -3.203125 L 4.6875 0 L 1.21875 0 L 1.21875 -12.234375 Z M 6.609375 -5.921875 C 7.316406 -5.921875 7.851562 -6.078125 8.21875 -6.390625 C 8.582031 -6.703125 8.765625 -7.140625 8.765625 -7.703125 C 8.765625 -8.273438 8.582031 -8.71875 8.21875 -9.03125 C 7.851562 -9.351562 7.316406 -9.515625 6.609375 -9.515625 L 4.6875 -9.515625 L 4.6875 -5.921875 Z M 6.609375 -5.921875 "/></g></g></g><g fill="#404040" fill-opacity="1"><g transform="translate(148.81663, 228.478021)"><g><path d="M 1.21875 -12.234375 L 4.6875 -12.234375 L 4.6875 -2.75 L 10.53125 -2.75 L 10.53125 0 L 1.21875 0 Z M 1.21875 -12.234375 "/></g></g></g><g fill="#404040" fill-opacity="1"><g transform="translate(168.362604, 228.478021)"><g><path d="M 9.421875 -2.375 L 4.25 -2.375 L 3.28125 0 L -0.25 0 L 5.15625 -12.234375 L 8.5625 -12.234375 L 13.984375 0 L 10.390625 0 Z M 8.40625 -4.9375 L 6.84375 -8.84375 L 5.265625 -4.9375 Z M 8.40625 -4.9375 "/></g></g></g><g fill="#404040" fill-opacity="1"><g transform="translate(190.981435, 228.478021)"><g><path d="M 12.875 -12.234375 L 12.875 0 L 10.015625 0 L 4.609375 -6.515625 L 4.609375 0 L 1.21875 0 L 1.21875 -12.234375 L 4.078125 -12.234375 L 9.46875 -5.71875 L 9.46875 -12.234375 Z M 12.875 -12.234375 "/></g></g></g><g fill="#404040" fill-opacity="1"><g transform="translate(213.949443, 228.478021)"><g><path d="M 3.828125 -9.5 L 0.0625 -9.5 L 0.0625 -12.234375 L 11.03125 -12.234375 L 11.03125 -9.5 L 7.296875 -9.5 L 7.296875 0 L 3.828125 0 Z M 3.828125 -9.5 "/></g></g></g><g fill="#404040" fill-opacity="1"><g transform="translate(233.93191, 228.478021)"><g/></g></g><g fill="#404040" fill-opacity="1"><g transform="translate(247.908379, 228.478021)"><g><path d="M 1.21875 -12.234375 L 4.6875 -12.234375 L 4.6875 -2.75 L 10.53125 -2.75 L 10.53125 0 L 1.21875 0 Z M 1.21875 -12.234375 "/></g></g></g><g fill="#404040" fill-opacity="1"><g transform="translate(267.454363, 228.478021)"><g><path d="M 9.421875 -2.375 L 4.25 -2.375 L 3.28125 0 L -0.25 0 L 5.15625 -12.234375 L 8.5625 -12.234375 L 13.984375 0 L 10.390625 0 Z M 8.40625 -4.9375 L 6.84375 -8.84375 L 5.265625 -4.9375 Z M 8.40625 -4.9375 "/></g></g></g><g fill="#404040" fill-opacity="1"><g transform="translate(290.073205, 228.478021)"><g><path d="M 1.21875 -12.234375 L 7.015625 -12.234375 C 8.347656 -12.234375 9.535156 -11.984375 10.578125 -11.484375 C 11.617188 -10.984375 12.421875 -10.269531 12.984375 -9.34375 C 13.554688 -8.425781 13.84375 -7.351562 13.84375 -6.125 C 13.84375 -4.882812 13.554688 -3.800781 12.984375 -2.875 C 12.421875 -1.957031 11.617188 -1.25 10.578125 -0.75 C 9.535156 -0.25 8.347656 0 7.015625 0 L 1.21875 0 Z M 6.875 -2.765625 C 7.914062 -2.765625 8.753906 -3.0625 9.390625 -3.65625 C 10.023438 -4.25 10.34375 -5.070312 10.34375 -6.125 C 10.34375 -7.164062 10.023438 -7.984375 9.390625 -8.578125 C 8.753906 -9.171875 7.914062 -9.46875 6.875 -9.46875 L 4.6875 -9.46875 L 4.6875 -2.765625 Z M 6.875 -2.765625 "/></g></g></g><g fill="#404040" fill-opacity="1"><g transform="translate(313.390401, 228.478021)"><g><path d="M 7.78125 -4.390625 L 7.78125 0 L 4.3125 0 L 4.3125 -4.4375 L -0.34375 -12.234375 L 3.296875 -12.234375 L 6.203125 -7.375 L 9.109375 -12.234375 L 12.46875 -12.234375 Z M 7.78125 -4.390625 "/></g></g></g><g fill="#404040" fill-opacity="1"><g transform="translate(77.002307, 244.303563)"><g><path d="M 2.609375 -4.78125 C 3.023438 -4.78125 3.382812 -4.710938 3.6875 -4.578125 C 4 -4.441406 4.234375 -4.242188 4.390625 -3.984375 C 4.554688 -3.734375 4.640625 -3.429688 4.640625 -3.078125 C 4.640625 -2.734375 4.554688 -2.429688 4.390625 -2.171875 C 4.234375 -1.910156 4 -1.710938 3.6875 -1.578125 C 3.382812 -1.441406 3.023438 -1.375 2.609375 -1.375 L 1.53125 -1.375 L 1.53125 0 L 0.640625 0 L 0.640625 -4.78125 Z M 2.5625 -2.125 C 2.945312 -2.125 3.238281 -2.207031 3.4375 -2.375 C 3.644531 -2.539062 3.75 -2.773438 3.75 -3.078125 C 3.75 -3.378906 3.644531 -3.613281 3.4375 -3.78125 C 3.238281 -3.945312 2.945312 -4.03125 2.5625 -4.03125 L 1.53125 -4.03125 L 1.53125 -2.125 Z M 2.5625 -2.125 "/></g></g></g><g fill="#404040" fill-opacity="1"><g transform="translate(85.964954, 244.303563)"><g><path d="M 0.640625 -4.78125 L 1.53125 -4.78125 L 1.53125 -0.75 L 4.03125 -0.75 L 4.03125 0 L 0.640625 0 Z M 0.640625 -4.78125 "/></g></g></g><g fill="#404040" fill-opacity="1"><g transform="translate(94.060682, 244.303563)"><g><path d="M 3.734375 -1.109375 L 1.359375 -1.109375 L 0.875 0 L -0.03125 0 L 2.109375 -4.78125 L 2.984375 -4.78125 L 5.140625 0 L 4.21875 0 Z M 3.453125 -1.796875 L 2.546875 -3.890625 L 1.65625 -1.796875 Z M 3.453125 -1.796875 "/></g></g></g><g fill="#404040" fill-opacity="1"><g transform="translate(103.180329, 244.303563)"><g><path d="M 4.890625 -4.78125 L 4.890625 0 L 4.15625 0 L 1.515625 -3.234375 L 1.515625 0 L 0.640625 0 L 0.640625 -4.78125 L 1.375 -4.78125 L 4.015625 -1.546875 L 4.015625 -4.78125 Z M 4.890625 -4.78125 "/></g></g></g><g fill="#404040" fill-opacity="1"><g transform="translate(112.716361, 244.303563)"><g><path d="M 1.609375 -4.03125 L 0.03125 -4.03125 L 0.03125 -4.78125 L 4.078125 -4.78125 L 4.078125 -4.03125 L 2.5 -4.03125 L 2.5 0 L 1.609375 0 Z M 1.609375 -4.03125 "/></g></g></g><g fill="#404040" fill-opacity="1"><g transform="translate(120.832564, 244.303563)"><g><path d="M 2.125 0.0625 C 1.757812 0.0625 1.40625 0.0078125 1.0625 -0.09375 C 0.71875 -0.195312 0.441406 -0.332031 0.234375 -0.5 L 0.546875 -1.1875 C 0.742188 -1.039062 0.984375 -0.914062 1.265625 -0.8125 C 1.546875 -0.71875 1.832031 -0.671875 2.125 -0.671875 C 2.476562 -0.671875 2.742188 -0.726562 2.921875 -0.84375 C 3.097656 -0.957031 3.1875 -1.109375 3.1875 -1.296875 C 3.1875 -1.429688 3.132812 -1.539062 3.03125 -1.625 C 2.9375 -1.71875 2.8125 -1.785156 2.65625 -1.828125 C 2.507812 -1.878906 2.304688 -1.9375 2.046875 -2 C 1.679688 -2.09375 1.382812 -2.179688 1.15625 -2.265625 C 0.9375 -2.347656 0.742188 -2.484375 0.578125 -2.671875 C 0.421875 -2.859375 0.34375 -3.109375 0.34375 -3.421875 C 0.34375 -3.679688 0.410156 -3.921875 0.546875 -4.140625 C 0.691406 -4.359375 0.910156 -4.53125 1.203125 -4.65625 C 1.492188 -4.78125 1.847656 -4.84375 2.265625 -4.84375 C 2.554688 -4.84375 2.84375 -4.804688 3.125 -4.734375 C 3.40625 -4.660156 3.648438 -4.554688 3.859375 -4.421875 L 3.578125 -3.734375 C 3.367188 -3.859375 3.148438 -3.953125 2.921875 -4.015625 C 2.691406 -4.078125 2.472656 -4.109375 2.265625 -4.109375 C 1.910156 -4.109375 1.644531 -4.046875 1.46875 -3.921875 C 1.300781 -3.804688 1.21875 -3.65625 1.21875 -3.46875 C 1.21875 -3.320312 1.265625 -3.207031 1.359375 -3.125 C 1.460938 -3.039062 1.585938 -2.972656 1.734375 -2.921875 C 1.890625 -2.867188 2.097656 -2.8125 2.359375 -2.75 C 2.710938 -2.664062 3.003906 -2.578125 3.234375 -2.484375 C 3.460938 -2.398438 3.65625 -2.265625 3.8125 -2.078125 C 3.976562 -1.898438 4.0625 -1.660156 4.0625 -1.359375 C 4.0625 -1.085938 3.988281 -0.84375 3.84375 -0.625 C 3.695312 -0.414062 3.476562 -0.25 3.1875 -0.125 C 2.894531 0 2.539062 0.0625 2.125 0.0625 Z M 2.125 0.0625 "/></g></g></g><g fill="#404040" fill-opacity="1"><g transform="translate(129.133072, 244.303563)"><g><path d="M 2.859375 0.0625 C 2.367188 0.0625 1.929688 -0.0390625 1.546875 -0.25 C 1.160156 -0.457031 0.851562 -0.75 0.625 -1.125 C 0.40625 -1.5 0.296875 -1.921875 0.296875 -2.390625 C 0.296875 -2.859375 0.40625 -3.28125 0.625 -3.65625 C 0.851562 -4.03125 1.160156 -4.320312 1.546875 -4.53125 C 1.941406 -4.738281 2.378906 -4.84375 2.859375 -4.84375 C 3.253906 -4.84375 3.613281 -4.773438 3.9375 -4.640625 C 4.257812 -4.503906 4.53125 -4.304688 4.75 -4.046875 L 4.171875 -3.515625 C 3.828125 -3.878906 3.40625 -4.0625 2.90625 -4.0625 C 2.570312 -4.0625 2.273438 -3.988281 2.015625 -3.84375 C 1.753906 -3.707031 1.550781 -3.507812 1.40625 -3.25 C 1.257812 -3 1.1875 -2.710938 1.1875 -2.390625 C 1.1875 -2.066406 1.257812 -1.773438 1.40625 -1.515625 C 1.550781 -1.265625 1.753906 -1.066406 2.015625 -0.921875 C 2.273438 -0.773438 2.570312 -0.703125 2.90625 -0.703125 C 3.40625 -0.703125 3.828125 -0.894531 4.171875 -1.28125 L 4.75 -0.734375 C 4.53125 -0.472656 4.253906 -0.273438 3.921875 -0.140625 C 3.597656 -0.00390625 3.242188 0.0625 2.859375 0.0625 Z M 2.859375 0.0625 "/></g></g></g><g fill="#404040" fill-opacity="1"><g transform="translate(138.10254, 244.303563)"><g><path d="M 3.734375 -1.109375 L 1.359375 -1.109375 L 0.875 0 L -0.03125 0 L 2.109375 -4.78125 L 2.984375 -4.78125 L 5.140625 0 L 4.21875 0 Z M 3.453125 -1.796875 L 2.546875 -3.890625 L 1.65625 -1.796875 Z M 3.453125 -1.796875 "/></g></g></g><g fill="#404040" fill-opacity="1"><g transform="translate(147.222186, 244.303563)"><g><path d="M 2.609375 -4.78125 C 3.023438 -4.78125 3.382812 -4.710938 3.6875 -4.578125 C 4 -4.441406 4.234375 -4.242188 4.390625 -3.984375 C 4.554688 -3.734375 4.640625 -3.429688 4.640625 -3.078125 C 4.640625 -2.734375 4.554688 -2.429688 4.390625 -2.171875 C 4.234375 -1.910156 4 -1.710938 3.6875 -1.578125 C 3.382812 -1.441406 3.023438 -1.375 2.609375 -1.375 L 1.53125 -1.375 L 1.53125 0 L 0.640625 0 L 0.640625 -4.78125 Z M 2.5625 -2.125 C 2.945312 -2.125 3.238281 -2.207031 3.4375 -2.375 C 3.644531 -2.539062 3.75 -2.773438 3.75 -3.078125 C 3.75 -3.378906 3.644531 -3.613281 3.4375 -3.78125 C 3.238281 -3.945312 2.945312 -4.03125 2.5625 -4.03125 L 1.53125 -4.03125 L 1.53125 -2.125 Z M 2.5625 -2.125 "/></g></g></g><g fill="#404040" fill-opacity="1"><g transform="translate(156.184831, 244.303563)"><g><path d="M 4.234375 -0.75 L 4.234375 0 L 0.640625 0 L 0.640625 -4.78125 L 4.125 -4.78125 L 4.125 -4.03125 L 1.53125 -4.03125 L 1.53125 -2.796875 L 3.84375 -2.796875 L 3.84375 -2.0625 L 1.53125 -2.0625 L 1.53125 -0.75 Z M 4.234375 -0.75 "/></g></g></g><g fill="#404040" fill-opacity="1"><g transform="translate(164.765215, 244.303563)"><g><path d="M 2.125 0.0625 C 1.757812 0.0625 1.40625 0.0078125 1.0625 -0.09375 C 0.71875 -0.195312 0.441406 -0.332031 0.234375 -0.5 L 0.546875 -1.1875 C 0.742188 -1.039062 0.984375 -0.914062 1.265625 -0.8125 C 1.546875 -0.71875 1.832031 -0.671875 2.125 -0.671875 C 2.476562 -0.671875 2.742188 -0.726562 2.921875 -0.84375 C 3.097656 -0.957031 3.1875 -1.109375 3.1875 -1.296875 C 3.1875 -1.429688 3.132812 -1.539062 3.03125 -1.625 C 2.9375 -1.71875 2.8125 -1.785156 2.65625 -1.828125 C 2.507812 -1.878906 2.304688 -1.9375 2.046875 -2 C 1.679688 -2.09375 1.382812 -2.179688 1.15625 -2.265625 C 0.9375 -2.347656 0.742188 -2.484375 0.578125 -2.671875 C 0.421875 -2.859375 0.34375 -3.109375 0.34375 -3.421875 C 0.34375 -3.679688 0.410156 -3.921875 0.546875 -4.140625 C 0.691406 -4.359375 0.910156 -4.53125 1.203125 -4.65625 C 1.492188 -4.78125 1.847656 -4.84375 2.265625 -4.84375 C 2.554688 -4.84375 2.84375 -4.804688 3.125 -4.734375 C 3.40625 -4.660156 3.648438 -4.554688 3.859375 -4.421875 L 3.578125 -3.734375 C 3.367188 -3.859375 3.148438 -3.953125 2.921875 -4.015625 C 2.691406 -4.078125 2.472656 -4.109375 2.265625 -4.109375 C 1.910156 -4.109375 1.644531 -4.046875 1.46875 -3.921875 C 1.300781 -3.804688 1.21875 -3.65625 1.21875 -3.46875 C 1.21875 -3.320312 1.265625 -3.207031 1.359375 -3.125 C 1.460938 -3.039062 1.585938 -2.972656 1.734375 -2.921875 C 1.890625 -2.867188 2.097656 -2.8125 2.359375 -2.75 C 2.710938 -2.664062 3.003906 -2.578125 3.234375 -2.484375 C 3.460938 -2.398438 3.65625 -2.265625 3.8125 -2.078125 C 3.976562 -1.898438 4.0625 -1.660156 4.0625 -1.359375 C 4.0625 -1.085938 3.988281 -0.84375 3.84375 -0.625 C 3.695312 -0.414062 3.476562 -0.25 3.1875 -0.125 C 2.894531 0 2.539062 0.0625 2.125 0.0625 Z M 2.125 0.0625 "/></g></g></g><g fill="#404040" fill-opacity="1"><g transform="translate(173.065728, 244.303563)"><g/></g></g><g fill="#404040" fill-opacity="1"><g transform="translate(178.956632, 244.303563)"><g><path d="M 4.234375 0.078125 L 3.625 -0.5 C 3.175781 -0.125 2.640625 0.0625 2.015625 0.0625 C 1.679688 0.0625 1.382812 0.0078125 1.125 -0.09375 C 0.863281 -0.207031 0.65625 -0.359375 0.5 -0.546875 C 0.351562 -0.742188 0.28125 -0.960938 0.28125 -1.203125 C 0.28125 -1.503906 0.363281 -1.765625 0.53125 -1.984375 C 0.707031 -2.210938 0.992188 -2.4375 1.390625 -2.65625 C 1.191406 -2.84375 1.050781 -3.019531 0.96875 -3.1875 C 0.894531 -3.351562 0.859375 -3.523438 0.859375 -3.703125 C 0.859375 -4.046875 0.984375 -4.316406 1.234375 -4.515625 C 1.484375 -4.722656 1.816406 -4.828125 2.234375 -4.828125 C 2.617188 -4.828125 2.925781 -4.734375 3.15625 -4.546875 C 3.394531 -4.359375 3.515625 -4.101562 3.515625 -3.78125 C 3.515625 -3.53125 3.4375 -3.3125 3.28125 -3.125 C 3.132812 -2.9375 2.890625 -2.742188 2.546875 -2.546875 L 3.578125 -1.5625 C 3.679688 -1.78125 3.769531 -2.050781 3.84375 -2.375 L 4.53125 -2.140625 C 4.4375 -1.722656 4.289062 -1.359375 4.09375 -1.046875 L 4.703125 -0.484375 Z M 2.234375 -4.234375 C 2.046875 -4.234375 1.894531 -4.1875 1.78125 -4.09375 C 1.675781 -4 1.625 -3.875 1.625 -3.71875 C 1.625 -3.613281 1.65625 -3.507812 1.71875 -3.40625 C 1.78125 -3.3125 1.894531 -3.179688 2.0625 -3.015625 C 2.332031 -3.160156 2.519531 -3.289062 2.625 -3.40625 C 2.738281 -3.519531 2.796875 -3.640625 2.796875 -3.765625 C 2.796875 -3.910156 2.742188 -4.023438 2.640625 -4.109375 C 2.546875 -4.191406 2.410156 -4.234375 2.234375 -4.234375 Z M 2.078125 -0.625 C 2.472656 -0.625 2.820312 -0.742188 3.125 -0.984375 L 1.859375 -2.203125 C 1.585938 -2.046875 1.394531 -1.898438 1.28125 -1.765625 C 1.164062 -1.628906 1.109375 -1.472656 1.109375 -1.296875 C 1.109375 -1.097656 1.195312 -0.9375 1.375 -0.8125 C 1.550781 -0.6875 1.785156 -0.625 2.078125 -0.625 Z M 2.078125 -0.625 "/></g></g></g><g fill="#404040" fill-opacity="1"><g transform="translate(187.782757, 244.303563)"><g/></g></g><g fill="#404040" fill-opacity="1"><g transform="translate(193.673661, 244.303563)"><g><path d="M 2.609375 -4.78125 C 3.023438 -4.78125 3.382812 -4.710938 3.6875 -4.578125 C 4 -4.441406 4.234375 -4.242188 4.390625 -3.984375 C 4.554688 -3.734375 4.640625 -3.429688 4.640625 -3.078125 C 4.640625 -2.734375 4.554688 -2.429688 4.390625 -2.171875 C 4.234375 -1.910156 4 -1.710938 3.6875 -1.578125 C 3.382812 -1.441406 3.023438 -1.375 2.609375 -1.375 L 1.53125 -1.375 L 1.53125 0 L 0.640625 0 L 0.640625 -4.78125 Z M 2.5625 -2.125 C 2.945312 -2.125 3.238281 -2.207031 3.4375 -2.375 C 3.644531 -2.539062 3.75 -2.773438 3.75 -3.078125 C 3.75 -3.378906 3.644531 -3.613281 3.4375 -3.78125 C 3.238281 -3.945312 2.945312 -4.03125 2.5625 -4.03125 L 1.53125 -4.03125 L 1.53125 -2.125 Z M 2.5625 -2.125 "/></g></g></g><g fill="#404040" fill-opacity="1"><g transform="translate(202.63631, 244.303563)"><g><path d="M 0.640625 -4.78125 L 1.53125 -4.78125 L 1.53125 -0.75 L 4.03125 -0.75 L 4.03125 0 L 0.640625 0 Z M 0.640625 -4.78125 "/></g></g></g><g fill="#404040" fill-opacity="1"><g transform="translate(210.732042, 244.303563)"><g><path d="M 3.734375 -1.109375 L 1.359375 -1.109375 L 0.875 0 L -0.03125 0 L 2.109375 -4.78125 L 2.984375 -4.78125 L 5.140625 0 L 4.21875 0 Z M 3.453125 -1.796875 L 2.546875 -3.890625 L 1.65625 -1.796875 Z M 3.453125 -1.796875 "/></g></g></g><g fill="#404040" fill-opacity="1"><g transform="translate(219.851691, 244.303563)"><g><path d="M 4.890625 -4.78125 L 4.890625 0 L 4.15625 0 L 1.515625 -3.234375 L 1.515625 0 L 0.640625 0 L 0.640625 -4.78125 L 1.375 -4.78125 L 4.015625 -1.546875 L 4.015625 -4.78125 Z M 4.890625 -4.78125 "/></g></g></g><g fill="#404040" fill-opacity="1"><g transform="translate(229.387719, 244.303563)"><g><path d="M 1.609375 -4.03125 L 0.03125 -4.03125 L 0.03125 -4.78125 L 4.078125 -4.78125 L 4.078125 -4.03125 L 2.5 -4.03125 L 2.5 0 L 1.609375 0 Z M 1.609375 -4.03125 "/></g></g></g><g fill="#404040" fill-opacity="1"><g transform="translate(237.503917, 244.303563)"><g/></g></g><g fill="#404040" fill-opacity="1"><g transform="translate(243.394811, 244.303563)"><g><path d="M 2.125 0.0625 C 1.757812 0.0625 1.40625 0.0078125 1.0625 -0.09375 C 0.71875 -0.195312 0.441406 -0.332031 0.234375 -0.5 L 0.546875 -1.1875 C 0.742188 -1.039062 0.984375 -0.914062 1.265625 -0.8125 C 1.546875 -0.71875 1.832031 -0.671875 2.125 -0.671875 C 2.476562 -0.671875 2.742188 -0.726562 2.921875 -0.84375 C 3.097656 -0.957031 3.1875 -1.109375 3.1875 -1.296875 C 3.1875 -1.429688 3.132812 -1.539062 3.03125 -1.625 C 2.9375 -1.71875 2.8125 -1.785156 2.65625 -1.828125 C 2.507812 -1.878906 2.304688 -1.9375 2.046875 -2 C 1.679688 -2.09375 1.382812 -2.179688 1.15625 -2.265625 C 0.9375 -2.347656 0.742188 -2.484375 0.578125 -2.671875 C 0.421875 -2.859375 0.34375 -3.109375 0.34375 -3.421875 C 0.34375 -3.679688 0.410156 -3.921875 0.546875 -4.140625 C 0.691406 -4.359375 0.910156 -4.53125 1.203125 -4.65625 C 1.492188 -4.78125 1.847656 -4.84375 2.265625 -4.84375 C 2.554688 -4.84375 2.84375 -4.804688 3.125 -4.734375 C 3.40625 -4.660156 3.648438 -4.554688 3.859375 -4.421875 L 3.578125 -3.734375 C 3.367188 -3.859375 3.148438 -3.953125 2.921875 -4.015625 C 2.691406 -4.078125 2.472656 -4.109375 2.265625 -4.109375 C 1.910156 -4.109375 1.644531 -4.046875 1.46875 -3.921875 C 1.300781 -3.804688 1.21875 -3.65625 1.21875 -3.46875 C 1.21875 -3.320312 1.265625 -3.207031 1.359375 -3.125 C 1.460938 -3.039062 1.585938 -2.972656 1.734375 -2.921875 C 1.890625 -2.867188 2.097656 -2.8125 2.359375 -2.75 C 2.710938 -2.664062 3.003906 -2.578125 3.234375 -2.484375 C 3.460938 -2.398438 3.65625 -2.265625 3.8125 -2.078125 C 3.976562 -1.898438 4.0625 -1.660156 4.0625 -1.359375 C 4.0625 -1.085938 3.988281 -0.84375 3.84375 -0.625 C 3.695312 -0.414062 3.476562 -0.25 3.1875 -0.125 C 2.894531 0 2.539062 0.0625 2.125 0.0625 Z M 2.125 0.0625 "/></g></g></g><g fill="#404040" fill-opacity="1"><g transform="translate(251.695316, 244.303563)"><g><path d="M 4.234375 -0.75 L 4.234375 0 L 0.640625 0 L 0.640625 -4.78125 L 4.125 -4.78125 L 4.125 -4.03125 L 1.53125 -4.03125 L 1.53125 -2.796875 L 3.84375 -2.796875 L 3.84375 -2.0625 L 1.53125 -2.0625 L 1.53125 -0.75 Z M 4.234375 -0.75 "/></g></g></g><g fill="#404040" fill-opacity="1"><g transform="translate(260.275691, 244.303563)"><g><path d="M 3.765625 0 L 2.796875 -1.40625 C 2.753906 -1.394531 2.691406 -1.390625 2.609375 -1.390625 L 1.53125 -1.390625 L 1.53125 0 L 0.640625 0 L 0.640625 -4.78125 L 2.609375 -4.78125 C 3.023438 -4.78125 3.382812 -4.710938 3.6875 -4.578125 C 4 -4.441406 4.234375 -4.242188 4.390625 -3.984375 C 4.554688 -3.734375 4.640625 -3.429688 4.640625 -3.078125 C 4.640625 -2.722656 4.550781 -2.414062 4.375 -2.15625 C 4.207031 -1.894531 3.957031 -1.703125 3.625 -1.578125 L 4.71875 0 Z M 3.75 -3.078125 C 3.75 -3.378906 3.644531 -3.613281 3.4375 -3.78125 C 3.238281 -3.945312 2.945312 -4.03125 2.5625 -4.03125 L 1.53125 -4.03125 L 1.53125 -2.125 L 2.5625 -2.125 C 2.945312 -2.125 3.238281 -2.207031 3.4375 -2.375 C 3.644531 -2.539062 3.75 -2.773438 3.75 -3.078125 Z M 3.75 -3.078125 "/></g></g></g><g fill="#404040" fill-opacity="1"><g transform="translate(269.27247, 244.303563)"><g><path d="M 5.015625 -4.78125 L 2.921875 0 L 2.0625 0 L -0.03125 -4.78125 L 0.921875 -4.78125 L 2.515625 -1.09375 L 4.125 -4.78125 Z M 5.015625 -4.78125 "/></g></g></g><g fill="#404040" fill-opacity="1"><g transform="translate(278.255587, 244.303563)"><g><path d="M 0.640625 -4.78125 L 1.53125 -4.78125 L 1.53125 0 L 0.640625 0 Z M 0.640625 -4.78125 "/></g></g></g><g fill="#404040" fill-opacity="1"><g transform="translate(284.440014, 244.303563)"><g><path d="M 2.859375 0.0625 C 2.367188 0.0625 1.929688 -0.0390625 1.546875 -0.25 C 1.160156 -0.457031 0.851562 -0.75 0.625 -1.125 C 0.40625 -1.5 0.296875 -1.921875 0.296875 -2.390625 C 0.296875 -2.859375 0.40625 -3.28125 0.625 -3.65625 C 0.851562 -4.03125 1.160156 -4.320312 1.546875 -4.53125 C 1.941406 -4.738281 2.378906 -4.84375 2.859375 -4.84375 C 3.253906 -4.84375 3.613281 -4.773438 3.9375 -4.640625 C 4.257812 -4.503906 4.53125 -4.304688 4.75 -4.046875 L 4.171875 -3.515625 C 3.828125 -3.878906 3.40625 -4.0625 2.90625 -4.0625 C 2.570312 -4.0625 2.273438 -3.988281 2.015625 -3.84375 C 1.753906 -3.707031 1.550781 -3.507812 1.40625 -3.25 C 1.257812 -3 1.1875 -2.710938 1.1875 -2.390625 C 1.1875 -2.066406 1.257812 -1.773438 1.40625 -1.515625 C 1.550781 -1.265625 1.753906 -1.066406 2.015625 -0.921875 C 2.273438 -0.773438 2.570312 -0.703125 2.90625 -0.703125 C 3.40625 -0.703125 3.828125 -0.894531 4.171875 -1.28125 L 4.75 -0.734375 C 4.53125 -0.472656 4.253906 -0.273438 3.921875 -0.140625 C 3.597656 -0.00390625 3.242188 0.0625 2.859375 0.0625 Z M 2.859375 0.0625 "/></g></g></g><g fill="#404040" fill-opacity="1"><g transform="translate(293.409486, 244.303563)"><g><path d="M 4.234375 -0.75 L 4.234375 0 L 0.640625 0 L 0.640625 -4.78125 L 4.125 -4.78125 L 4.125 -4.03125 L 1.53125 -4.03125 L 1.53125 -2.796875 L 3.84375 -2.796875 L 3.84375 -2.0625 L 1.53125 -2.0625 L 1.53125 -0.75 Z M 4.234375 -0.75 "/></g></g></g></svg>